<svg xmlns="http://www.w3.org/2000/svg" viewBox="0 0 190.74 68.41"><defs><style>.cls-1{fill:#fff;}.cls-2{fill:none;}</style></defs><title>adl</title><g id="Layer_2" data-name="Layer 2"><g id="Layer_2-2" data-name="Layer 2"><polygon class="cls-1" points="42.53 40.75 35 16.13 27.48 40.75 23.47 53.95 19.07 68.41 4.12 68.41 26.5 0 45.07 0 67.45 68.41 51.03 68.41 46.63 53.95 42.53 40.75"/><polygon class="cls-1" points="128.54 0 143.69 0 143.69 55.22 176.23 55.22 176.23 68.41 128.54 68.41 128.54 0"/><path class="cls-2" d="M185.42,57.57a4.19,4.19,0,0,0-3.17,1.35,4.88,4.88,0,0,0,0,6.57,4.37,4.37,0,0,0,6.33,0,4.58,4.58,0,0,0,1.27-3.28,4.66,4.66,0,0,0-1.27-3.3A4.17,4.17,0,0,0,185.42,57.57Zm1.16,7.72-1-2.16h-1.19v2.16H183.2V59.17h2.23a2.83,2.83,0,0,1,1.72.44,1.57,1.57,0,0,1,.58,1.33,3,3,0,0,1-.23,1.33,1.69,1.69,0,0,1-.8.7l1.11,2.32Z"/><path class="cls-2" d="M96.8,13.19H84.59v42h12c7.43,0,12.21-3.91,12.21-11.63V24.82C108.82,17.1,104,13.19,96.8,13.19Z"/><path class="cls-2" d="M185.33,60.12h-1v2.06h1.19a.88.88,0,0,0,1-1C186.58,60.46,186.16,60.12,185.33,60.12Z"/><path class="cls-1" d="M185.43,56.7a5,5,0,0,0-3.82,1.59,5.81,5.81,0,0,0,0,7.85,5.08,5.08,0,0,0,3.83,1.6,5,5,0,0,0,3.8-1.59,5.9,5.9,0,0,0,0-7.85A5,5,0,0,0,185.43,56.7Zm3.15,8.8a4.37,4.37,0,0,1-6.33,0,4.88,4.88,0,0,1,0-6.57,4.39,4.39,0,0,1,6.33,0,4.66,4.66,0,0,1,1.27,3.3A4.58,4.58,0,0,1,188.58,65.5Z"/><path class="cls-1" d="M187.5,62.27a3,3,0,0,0,.23-1.33,1.57,1.57,0,0,0-.58-1.33,2.83,2.83,0,0,0-1.72-.44H183.2v6.12h1.18V63.13h1.19l1,2.16h1.23L186.7,63A1.69,1.69,0,0,0,187.5,62.27Zm-1.16-.33a1.11,1.11,0,0,1-.79.24h-1.19V60.12h1c.83,0,1.25.34,1.25,1A1.11,1.11,0,0,1,186.34,61.94Z"/><path class="cls-1" d="M96.8,0H69.44V68.41H96.61C113.22,68.41,124,60,124,43.59V24.82C124,8.4,113.22,0,96.8,0Zm12,43.59c0,7.72-4.78,11.63-12.21,11.63h-12v-42H96.8c7.24,0,12,3.91,12,11.63Z"/><polygon class="cls-1" points="0 56.43 65.94 45.98 65.94 32.48 0 42.93 0 56.43"/></g></g></svg>