<svg xmlns="http://www.w3.org/2000/svg" viewBox="0 0 369.3 96.07"><defs><style>.cls-1{fill:#fff;}</style></defs><title>asco</title><g id="Layer_2" data-name="Layer 2"><g id="Layer_1-2" data-name="Layer 1"><path class="cls-1" d="M75.36,94.05,67.5,77.5H26.67L18.81,94.05H0L47.14,0,94.29,94.05ZM47,34.76,33.57,63.33H60.71Z"/><path class="cls-1" d="M137,41.2c-18.47-4.37-21.45-7.71-21.45-14v-.25c0-6.29,5.84-10.51,14.52-10.51,8.1,0,16.1,3,24.47,9.28l.2.15,8.84-12.45-.18-.14A50.86,50.86,0,0,0,130.34,1.81C112,1.81,99.12,12.73,99.12,28.36v.26c0,16.8,10.68,22.56,30.39,27.32,17.24,4,20.27,7.56,20.27,13.62v.26C149.78,76.49,143.43,81,134,81c-10.32,0-19.1-3.62-28.47-11.73l-.19-.16L95.4,80.86l.18.16a56.29,56.29,0,0,0,38,14.57c19.83,0,32.64-10.72,32.64-27.32V68C166.22,51.66,154.54,45.47,137,41.2Z"/><path class="cls-1" d="M258.58,84.05c-8.22,8-18.81,12-32.62,12-28.81,0-50.12-21.55-50.12-47S195.6,1.9,224.41,1.9c19.76,0,31.31,10,33.45,13l-8.93,11.67c-6.42-6.07-14.64-9.41-25.35-9.41-17.5,0-29.65,13.69-29.65,32.38,0,17.5,14.53,31.31,32.15,31.31,13.81,0,21.78-5.11,24.76-7.85Z"/><path class="cls-1" d="M310.3,96.07c-27.5,0-49.52-21.31-49.52-47S282.8,1.9,310.3,1.9c27.14,0,49.17,20.36,49.17,47.51C359.47,75,336.85,96.07,310.3,96.07Zm0-78.93a31.43,31.43,0,0,0-31.55,31.43c0,16.91,13.93,32.38,30.72,32.38a31.55,31.55,0,0,0,31.9-31.66C341.37,31,327.09,17.14,310.3,17.14Z"/><path class="cls-1" d="M363.21,15.08A6,6,0,0,1,357.11,9,6.1,6.1,0,1,1,369.3,9,6,6,0,0,1,363.21,15.08Zm0-11.21A5,5,0,0,0,358.09,9a5.12,5.12,0,0,0,10.23,0A5,5,0,0,0,363.21,3.87Zm1.37,5.64,1.36,2.69h-1.33l-1.3-2.57H362V12.2H360.9V5.54h2.92a2,2,0,0,1,2.17,2A1.88,1.88,0,0,1,364.58,9.51Zm-.8-2.87H362V8.53h1.75c.61,0,1.07-.29,1.07-.94A.94.94,0,0,0,363.78,6.64Z"/></g></g></svg>