<svg id="Layer_1" data-name="Layer 1" xmlns="http://www.w3.org/2000/svg" viewBox="0 0 291.56 108.28"><defs><style>.cls-1{fill:#fff;}</style></defs><title>BV-Logo</title><path class="cls-1" d="M19.81,47.76c5.83.84,10.43,3.33,10.43,9,0,3.78-2.18,6.66-5.66,8.52-3,1.58-6.89,2.25-11.55,2.25H0V65.92c5.07-.33,5.42-.67,5.42-5.41V37.77c0-4.68-.23-5-4.95-5.36V30.83H15.62c4.42,0,7,.68,8.84,1.92a7.56,7.56,0,0,1,3.31,6.43c0,5.36-4.66,7.56-8,8.41Zm-6.66-.68c6.48,0,9.19-2.48,9.19-7.22,0-3.83-2.24-7.22-7.84-7.22a7.9,7.9,0,0,0-3.36.56c-.53.34-.76,1-.76,2.83v11ZM10.38,60.45c0,4.06,1.12,5.14,4.89,5.14,4.83-.06,9.14-2.43,9.14-8.3s-4.13-8.35-11.32-8.35H10.38Z"/><path class="cls-1" d="M60.71,67.86c-.57,0-1.09,0-1.66,0-3.53-.18-5.51-1.17-7.64-4.11-1.65-2.21-3.34-5-4.76-7.22-.8-1.26-1.6-1.8-4-1.8H41.09v7.17c0,3.84.42,4.11,4.19,4.38V67.5H32.88V66.24c3.87-.27,4.29-.54,4.29-4.38V43.72c0-3.84-.37-4-4.05-4.29V38.17H44.81c3.45,0,5.76.4,7.55,1.53a6.7,6.7,0,0,1,3.11,5.92c0,3.88-2.5,6.27-6,7.71.8,1.49,2.78,4.52,4.2,6.55a35.54,35.54,0,0,0,3.82,4.69,6.77,6.77,0,0,0,3.39,2.12ZM43.35,53.2c2.41,0,4-.36,5.14-1.27a6.36,6.36,0,0,0,2.6-5.59c0-4.88-3.35-6.68-6.94-6.68a4.78,4.78,0,0,0-2.54.45c-.33.23-.52.77-.52,2V53.2Z"/><path class="cls-1" d="M62.94,67.5V66.24c3.87-.27,4.24-.54,4.24-4.38v-18c0-3.84-.37-4.11-4.24-4.38V38.17h12.5v1.26c-3.87.27-4.25.54-4.25,4.38v18c0,3.88.38,4.11,4.25,4.38V67.5Z"/><path class="cls-1" d="M106.7,55.14c-2.83.4-3,.63-3,3.29v3.84a19.62,19.62,0,0,0,.33,4.24,47.39,47.39,0,0,1-10.56,1.67c-10.37,0-17.31-6.18-17.31-15.12,0-10.47,8.78-15.57,18-15.57a40.79,40.79,0,0,1,9,1.31c.14,1.58.38,4.06.76,7l-1.32.27c-1.13-5.5-4.72-7-9.2-7-7.21,0-12.5,5.05-12.5,13.4C81,59,85,66.6,94.06,66.6a9.78,9.78,0,0,0,4.11-.81c.94-.5,1.51-1,1.51-2.94V59c0-3.25-.33-3.52-5-3.88V53.92h12Z"/><path class="cls-1" d="M140.56,39.43c-3.86.32-4.24.54-4.24,4.29V62c0,3.79.38,4,4.19,4.29V67.5H127.88V66.24c4-.27,4.43-.5,4.43-4.29v-9H116.23v9c0,3.75.38,4,4.24,4.29V67.5h-12.4V66.24c3.77-.27,4.15-.5,4.15-4.29V43.72c0-3.79-.38-4-4.25-4.29V38.17h12.22v1.26c-3.58.32-4,.54-4,4.29V51h16.08V43.72c0-3.75-.38-4-4.06-4.29V38.17h12.31Z"/><path class="cls-1" d="M168.44,45.16a10.56,10.56,0,0,0-1.51-4c-.75-1.09-1.55-1.4-5.09-1.4h-3.35V62c0,3.57.38,4,4.86,4.29V67.5H149.81V66.24c4.3-.27,4.67-.72,4.67-4.29V39.75h-2.92c-3.91,0-4.86.36-5.47,1.4a13.47,13.47,0,0,0-1.51,4h-1.37c.24-2.7.47-5.64.57-8.12h.94c.66,1,1.27,1.13,2.6,1.13h18.62A2.55,2.55,0,0,0,168.35,37h1c0,2.08.23,5.37.47,8Z"/><path class="cls-1" d="M207.5,67.5V66.24c3.87-.27,4.25-.54,4.25-4.38v-18c0-3.84-.38-4.11-4.25-4.38V38.17H220v1.26c-3.87.27-4.24.54-4.24,4.38v18c0,3.88.37,4.11,4.24,4.38V67.5Z"/><path class="cls-1" d="M247.2,60.37c-.28,1.49-1.22,5.74-1.65,7.13H222.82V66.24c4.29-.32,4.67-.68,4.67-4.33V44c0-4.07-.38-4.2-4.06-4.52V38.17h21c0,1.13.23,4.2.37,6.5l-1.36.22A11.65,11.65,0,0,0,242,41c-.66-.95-1.94-1.26-5.33-1.26h-3.59c-1.46,0-1.55.09-1.55,1.44V51.44h4.43c4.25,0,4.48-.36,5.1-3.39h1.36v8.67H241c-.62-3.25-.95-3.52-5.05-3.52H231.5v8.53c0,2.12.28,3.07,1.13,3.65s2.55.59,4.91.59c3.58,0,4.9-.36,5.94-1.53a13.22,13.22,0,0,0,2.31-4.25Z"/><path class="cls-1" d="M291.56,39.43c-3.25.41-3.67.77-5.09,4.52-1.08,2.88-3.91,11.41-7.78,24h-1.46c-2.6-7.27-5.85-16-8.25-22.52h-.1c-2.64,7.94-5.28,15.21-7.69,22.52h-1.46c-2.5-8.17-5.14-16.11-7.73-24.15-1.18-3.7-1.89-4.06-4.77-4.42V38.17h11.46v1.26c-3.44.41-3.53.77-2.83,3.07,1.84,6.09,3.68,12.19,5.76,18.6h.09c2.5-7.68,5.24-15.12,7.64-22.48h1.37c2.64,7.4,5.38,14.71,8.25,22.52h.1c2-6,4.57-14.89,5.33-18.1.66-2.7.47-3.2-3.26-3.61V38.17h10.42Z"/><path class="cls-1" d="M193.44,78.31c-.45-6.79-11-48.94-34.46-46.86,0,0,21.44-7.6,33.74,28.86,0,0,14.83-65.5,56.53-60,0,0-41.43-3.71-55.79,78Z"/><path class="cls-1" d="M43.82,87.53c-.64-.37-1.13-.65-1.46-.82a7.09,7.09,0,0,0-1.09-.44,11.36,11.36,0,0,0-1.67-.37,11.19,11.19,0,0,0-1.7-.15,5.56,5.56,0,0,0-3.39.94,3,3,0,0,0-1.27,2.5,3.05,3.05,0,0,0,.24,1.22,3.52,3.52,0,0,0,.9,1.15,13,13,0,0,0,1.85,1.29c.79.47,1.8,1,3,1.7A21.16,21.16,0,0,1,43.12,97,5,5,0,0,1,44.5,99a6.29,6.29,0,0,1,.5,2.51,6.18,6.18,0,0,1-2.16,5A8.8,8.8,0,0,1,37,108.28a12.11,12.11,0,0,1-4.51-.81,7.72,7.72,0,0,1-1.33-.63c-.42-.25-1-.64-1.81-1.18l1.55-2.41c.69.47,1.23.81,1.61,1a11,11,0,0,0,1.2.57,9.85,9.85,0,0,0,3.52.63,5.37,5.37,0,0,0,3.4-1,3.3,3.3,0,0,0,1.22-2.74,3.41,3.41,0,0,0-.37-1.74,5.13,5.13,0,0,0-2.07-2c-.2-.12-.64-.35-1.31-.7s-1.6-.84-2.76-1.48a13.07,13.07,0,0,1-4-3,5.29,5.29,0,0,1-1.22-3.4,6,6,0,0,1,.58-2.65,5.85,5.85,0,0,1,1.62-2,7.64,7.64,0,0,1,2.56-1.31A11.12,11.12,0,0,1,38.16,83a14.76,14.76,0,0,1,2.11.15,13.19,13.19,0,0,1,2,.45,11.11,11.11,0,0,1,1.33.55c.39.2.93.5,1.63.89Z"/><path class="cls-1" d="M51.55,107.8V90.12h11v2.33H54.36v5.1H61.1v2.33H54.36v5.59h8.37v2.33Z"/><path class="cls-1" d="M82.74,108l-10-12.76c-.29-.4-.51-.71-.64-.93a2,2,0,0,1-.28-.7V107.8H69.24V90.12h2.81L82,102.7a3.45,3.45,0,0,1,.42.75,3.8,3.8,0,0,1,.28.87V90.12H85.3V108Z"/><path class="cls-1" d="M94,107.8V90.12h2.82V107.8Z"/><path class="cls-1" d="M122.89,99a9.09,9.09,0,0,1-.74,3.68,8.8,8.8,0,0,1-2,2.9,9.15,9.15,0,0,1-3.11,1.91,11.7,11.7,0,0,1-7.86,0,9.45,9.45,0,0,1-3.11-1.91,8.49,8.49,0,0,1-2-2.9,9.76,9.76,0,0,1,0-7.36,8.53,8.53,0,0,1,2-2.91,9.43,9.43,0,0,1,3.11-1.9,11.54,11.54,0,0,1,7.86,0,9.13,9.13,0,0,1,3.11,1.9,8.84,8.84,0,0,1,2,2.91A9.09,9.09,0,0,1,122.89,99Zm-3,0a7,7,0,0,0-.52-2.7,6.34,6.34,0,0,0-3.59-3.59,7.27,7.27,0,0,0-5.4,0,6.63,6.63,0,0,0-2.18,1.42,6.34,6.34,0,0,0-1.44,2.17,7.27,7.27,0,0,0,0,5.4,6.38,6.38,0,0,0,1.44,2.18,6.55,6.55,0,0,0,2.18,1.45,7.4,7.4,0,0,0,5.4,0,6.51,6.51,0,0,0,2.17-1.45,6.63,6.63,0,0,0,1.42-2.18A7,7,0,0,0,119.89,99Z"/><path class="cls-1" d="M139.39,107.8l-4.66-7.21h-2.56v7.21h-2.81V90.12h6a8,8,0,0,1,4.9,1.29,4.43,4.43,0,0,1,1.68,3.74,5.45,5.45,0,0,1-1.12,3.49,4.6,4.6,0,0,1-3,1.72l4.88,7.44Zm-.52-12.54a2.7,2.7,0,0,0-1.07-2.33l-.41-.26a1,1,0,0,0-.48-.15l-.74-.06h-4v5.8h3.89a4.86,4.86,0,0,0,.76-.1,1.81,1.81,0,0,0,.55-.22,3.85,3.85,0,0,0,.54-.41A2.84,2.84,0,0,0,138.87,95.26Z"/><path class="cls-1" d="M157.3,107.8V83.38h3v21.87h10.91v2.55Z"/><path class="cls-1" d="M175.91,107.8V90.12h2.81V107.8Z"/><path class="cls-1" d="M193.15,108.25h-1.48L184,90.12h3l5.32,12.76a1.73,1.73,0,0,1,.19.81c0-.17,0-.31.07-.42a2.52,2.52,0,0,1,.15-.39l5-12.76h3Z"/><path class="cls-1" d="M206,107.8V90.12h2.81V107.8Z"/><path class="cls-1" d="M231,108,221,95.26c-.29-.4-.51-.71-.65-.93a2.21,2.21,0,0,1-.27-.7V107.8h-2.59V90.12h2.81l10,12.58a3.45,3.45,0,0,1,.42.75,3.8,3.8,0,0,1,.28.87V90.12h2.55V108Z"/><path class="cls-1" d="M257.23,107.1l-.83.24-.61.16a23.38,23.38,0,0,1-2.65.49,21.27,21.27,0,0,1-2.57.18,12.17,12.17,0,0,1-4.22-.7,10.54,10.54,0,0,1-3.33-1.94,9,9,0,0,1-2.2-2.93,8.85,8.85,0,0,1,0-7.31A8.84,8.84,0,0,1,243,92.41a9.9,9.9,0,0,1,3.25-1.91,12.14,12.14,0,0,1,4.11-.68c.72,0,1.45,0,2.2.11a11.62,11.62,0,0,1,1.87.3c.44.12.84.25,1.18.38s.83.37,1.45.69l-1.19,2.33c-.56-.32-1-.54-1.22-.67a10.68,10.68,0,0,0-2-.61,11,11,0,0,0-2.2-.24,8.5,8.5,0,0,0-2.95.5A7.54,7.54,0,0,0,245.09,94a6.25,6.25,0,0,0-1.55,2.11,6.34,6.34,0,0,0-.56,2.66,6.59,6.59,0,0,0,2.32,5,8,8,0,0,0,2.55,1.48,9,9,0,0,0,3.16.54,13.34,13.34,0,0,0,1.39-.07c.48,0,1.15-.15,2-.3V99.88h2.81Z"/></svg>