<?xml version="1.0" encoding="utf-8"?>
<!-- Generator: Adobe Illustrator 18.1.0, SVG Export Plug-In . SVG Version: 6.00 Build 0)  -->
<svg version="1.1" id="Layer_1" xmlns="http://www.w3.org/2000/svg" xmlns:xlink="http://www.w3.org/1999/xlink" x="0px" y="0px"
	 viewBox="0 196.3 799.8 206.9" enable-background="new 0 196.3 799.8 206.9" xml:space="preserve">
<g>
	<g>
		<path fill="#FFFFFF" d="M29.4,211.6c2.6,0,5.6,0,8.8,0c3.2,0,6,0,9,0c3.2,0,6.4-0.2,9.6-0.2l0.6,0.4V227c0,0.2-0.2,0.4-0.6,0.4
			s-0.6-0.2-0.6-0.4c-0.4-1.2-0.6-2.4-0.8-3.8c-0.2-1.2-0.6-2.2-0.8-2.6c-1-1.8-2.2-3-3.6-4c-1.4-0.8-3-1.4-4.6-1.8
			s-3.2-0.4-4.6-0.4c-1.6,0-2.8,0-3.8,0h-5.4v47.8c0,1.6,0,3.2,0,4.8c0,1.4,0.4,2.8,0.8,3.8c0.4,1,1.2,2,2.2,2.6c1,0.6,2.4,1,4.4,1
			c0.4,0,0.4,0.2,0.4,0.8c0,0.4-0.2,0.8-0.4,0.8c-1.4,0-2.6,0-4,0c-1.2,0-2.4,0-3.6,0c-1.2,0-2.4,0-3.4,0c-1,0-2.2,0-3.4,0
			c-1.2,0-2.2,0-3.4,0c-1.2,0-2.4,0-3.6,0c-0.4,0-0.4-0.2-0.4-0.8c0-0.4,0.2-0.8,0.4-0.8c1.8,0,3.2-0.4,4.2-1c1-0.6,1.6-1.4,2.2-2.6
			c0.4-1,0.6-2.4,0.8-3.8c0-1.4,0-3,0-4.8v-47.6H20c-1,0-2.4,0-4,0c-1.4,0-3,0.2-4.6,0.4c-1.6,0.4-3.2,1-4.6,1.8s-2.6,2.2-3.4,4
			c-0.4,0.4-0.6,1.4-0.8,2.6c-0.4,1.4-0.6,2.6-1,3.8c0,0.2-0.2,0.2-0.6,0.4c-0.4,0-0.6,0-0.6-0.4v-15.4l0.4-0.4
			c3.4,0,6.6,0.2,10,0.2c2.8,0,6,0,9.2,0C23.6,211.6,26.6,211.6,29.4,211.6z"/>
		<path fill="#FFFFFF" d="M72.9,262.5c0,1.6,0,3.2,0,4.8c0,1.4,0.4,2.8,0.8,3.8c0.4,1,1.2,2,2.2,2.6c1,0.6,2.4,1,4.4,1
			c0.4,0,0.6,0.2,0.6,0.8c0,0.4-0.2,0.8-0.6,0.8c-1.4,0-2.6,0-4,0c-1.2,0-2.4,0-3.6,0s-2.4,0-3.4,0c-1,0-2.2,0-3.4,0
			c-1.2,0-2.2,0-3.4,0s-2.4,0-3.6,0c-0.4,0-0.4-0.2-0.4-0.8c0-0.4,0.2-0.8,0.4-0.8c1.8,0,3.2-0.4,4.2-1c1-0.6,1.6-1.4,2.2-2.6
			c0.4-1,0.6-2.4,0.8-3.8c0-1.4,0-3,0-4.8V225c0-1.6,0-3.2,0-4.8c0-1.4-0.2-2.8-0.8-3.8c-0.4-1-1.2-2-2.2-2.6c-0.8-0.6-2.2-1-4-1
			c-0.4,0-0.4-0.2-0.4-0.6c0-0.4,0.2-0.6,0.4-0.6c1.2,0,2.4,0,3.8,0c1,0,2.2,0,3.4,0s2.4,0,3.4,0s2,0,3.2,0s2.4,0,3.4,0
			c1.2,0,2.4,0,3.6,0c0.4,0,0.6,0.2,0.6,0.6c0.2,0.4,0,0.6-0.4,0.6c-1.8,0-3.4,0.4-4.2,1c-1,0.6-1.6,1.4-2,2.6
			c-0.4,1-0.6,2.4-0.8,3.8c0,1.4,0,3,0,4.8v16.8h39.8v-17c0-1.6,0-3.2,0-4.8c0-1.4-0.2-2.8-0.8-3.8c-0.4-1-1.2-2-2.2-2.6
			c-1-0.4-2.4-0.8-4.2-0.8c-0.4,0-0.4-0.2-0.4-0.6c0-0.4,0.2-0.6,0.4-0.6c1.2,0,2.4,0,3.6,0c1,0,2.2,0,3.4,0c1.2,0,2.2,0,3.4,0
			c1,0,2.2,0,3.4,0c1.2,0,2.4,0,3.4,0c1.2,0,2.4,0,3.8,0c0.4,0,0.6,0.2,0.6,0.6c0,0.4-0.2,0.6-0.6,0.8c-1.8,0-3.4,0.4-4.2,1
			c-1,0.6-1.6,1.4-2,2.6c-0.4,1-0.6,2.4-0.8,3.8c0,1.4,0,3,0,4.8v37.6c0,1.6,0,3.2,0,4.8c0,1.4,0.2,2.8,0.8,3.8c0.4,1,1,2,2,2.6
			c1,0.6,2.4,1,4.2,1c0.4,0,0.6,0.2,0.6,0.6c0,0.6-0.2,0.8-0.6,0.8c-1.2,0-2.4,0-3.6,0c-1,0-2.2,0-3.4,0c-1.2,0-2.2,0-3.2,0
			c-1,0-2.2,0-3.4,0c-1.2,0-2.4,0-3.4,0c-1.2,0-2.4,0-3.6,0c-0.6,0-0.8-0.2-0.8-0.8c0-0.4,0.2-0.8,0.4-0.6c1.8,0,3.2-0.4,4.2-1
			c1-0.6,1.6-1.4,2.2-2.6c0.4-1,0.6-2.4,0.8-3.8c0-1.4,0-3,0-4.8v-18.2h-40V262.5z"/>
		<path fill="#FFFFFF" d="M151.7,211.6c2,0,4.4,0,6.8,0c2.4,0,4.8,0,7,0c2.6,0,5,0,7.6,0l1,13l-1.2,0.4c-0.6-3-1.6-5.4-2.6-6.8
			c-1-1.6-2.2-2.8-3.8-3.4c-1.4-0.6-3.2-1-5.2-1.2c-2,0-4.4,0-7,0h-9.4v27.4h3.8c1.6,0,3.4,0,5,0c1.6,0,3.2-0.2,4.8-0.4
			c1.6-0.2,2.8-0.6,3.8-1.2c1-0.6,1.8-1.4,2.2-2.6c0.2-0.4,0.2-0.6,0.4-0.8s0.2-0.6,0.4-0.8c0-0.2,0.2-0.6,0.2-0.8
			c0-0.4,0.2-0.6,0.4-1h0.6l0.4,0.6v14.6c0.2,0.4,0,0.6-0.6,0.8c-0.4,0-0.8,0-0.8-0.2c-0.2-0.8-0.6-1.6-0.8-2.2
			c-0.2-0.8-0.6-1.4-1.2-2s-1.2-1-2-1.4c-0.2-0.6-1.4-0.8-2.6-0.8h-13.6v20c0,0.4,0,1.2,0,2.2c0,1,0,2.2,0,3.2
			c0,1.2,0.2,2.2,0.6,3.2c0.2,1,0.8,1.6,1.4,2c0.8,0.6,2.2,0.8,4.4,0.8s4.4,0,7,0c2.4-0.2,4.8-0.4,7-0.8c2.2-0.4,3.6-0.8,4.4-1
			c1.6-0.6,2.6-1.4,3.6-2.2c0.8-0.8,1.6-1.6,2.2-2.6c0.6-1,1-2,1.4-3c0.4-1,0.6-2.2,1-3.6l1,0.2l-1.6,14.6h-7.6c-2.2,0-4.8,0-7.6,0
			s-5.8,0-8.8,0c-2.8,0-5.6,0-8.2,0c-2.8,0-5,0-7.2,0c-2,0-4.4,0-7,0c-0.4,0-0.4-0.2-0.4-0.6s0.2-0.8,0.4-0.8c1.8,0,3.2-0.4,4.2-1
			c1-0.6,1.6-1.4,2.2-2.6c0.4-1,0.6-2.4,0.8-3.8c0-1.4,0-3,0-4.8V225c0-1.6,0-3.2,0-4.8c0-1.4-0.2-2.8-0.8-3.8c-0.4-1-1.2-2-2.2-2.6
			c-1-0.6-2.4-1-4.4-1c-0.4,0-0.4-0.4-0.4-0.8c0-0.4,0.2-0.6,0.4-0.6c2.4,0,4.8,0,7.2,0c2,0,4.4,0,6.8,0
			C147.5,211.6,149.7,211.6,151.7,211.6z"/>
	</g>
	<g>
		<path fill="#FFFFFF" d="M271.2,215.6c0,0.4-0.2,0.8-0.2,1s0,0.6,0,1c-2.6-3.8-5.2-7-7.8-9.4c-2.6-2.4-5.2-4.2-7.8-5.6
			c-2.8-1.4-5.6-2.2-8.4-2.8c-3-0.4-6-0.8-9.4-0.8c-2,0-4.4,0.2-7,0.6s-5.4,1.2-8.2,2.2c-2.8,1.2-5.4,2.6-8.2,4.6
			c-2.6,2-5,4.6-7,7.6c-2,3.2-3.6,7-4.8,11.4s-2,9-2.2,13.8c-0.4,4.6-0.2,9.2,0.4,13.8c0.6,4.4,1.4,8.2,2.8,11.2
			c2.8,7,6.8,12.6,11.8,16.4s10.8,6.6,17.2,7.8c5.8,1.2,11.8,0.8,17.6-1.2c5.8-2,11.6-5.8,17.4-11.6c0.8-0.8,1.6-1.6,2.2-2.2
			c0.6-0.6,1.2-1.2,1.4-1.6c0.2-0.4,0.6-0.8,0.8-1.2c0.4-0.4,0.6-0.6,0.8-1l0.2-0.4l0.6-0.6l0.2-0.6l0.4,0.4l0.6,7.2
			c-4,4-8.2,7.2-12.6,9.6c-4.4,2.4-9,4.2-13.6,5.2c-4.6,1.2-9,1.6-13.4,1.6c-4.4,0-8.2-0.6-11.8-1.6c-3.8-0.8-7.4-2.2-10.6-3.8
			c-3.4-1.6-6.4-3.6-9.2-6c-2.8-2.4-5.2-5.2-7.4-8.4c-2.2-3.2-3.8-7-5-11.2c-1-3.4-1.6-7.2-1.6-11.6s0.4-9,1.4-13.8
			c1-4.6,2.4-9.2,4.4-13.8c2-4.4,4.6-8.4,7.8-11.8c4-4.4,8.8-7.6,14.4-9.6c5.4-2,11-3.2,16.6-3.8c5.6-0.4,11-0.4,16.2,0.2
			c5.2,0.6,9.4,1.2,13,2c0.2,0,1,0.2,2,0.4c1,0.2,1.6,0.2,1.8,0.2c0.2,0.2,1,0.4,2,0.8c1,0.4,1.6,0.6,1.8,0.8v14.6H271.2z"/>
		<path fill="#FFFFFF" d="M325.2,197c6.6,0,12.8,1,18.6,3.4c5.8,2.4,11,5.6,15.4,10c4.4,4.2,8,9.4,10.6,15c2.6,5.8,4,12,4.2,18.6
			c0.2,6.8-0.8,13-3.2,18.8s-5.6,10.8-9.8,15.2c-4.2,4.4-9.2,7.8-15.2,10.4c-5.8,2.6-12.2,3.8-19,4c-6.6,0.2-12.8-1-18.6-3.4
			c-5.8-2.4-11-5.6-15.4-10c-4.4-4.2-7.8-9.2-10.6-15c-2.6-5.8-4-12-4.2-18.6c-0.2-6.6,1-12.8,3.4-18.6s5.8-11,10-15.4
			c4.2-4.4,9.2-7.8,15-10.4C312.4,198.6,318.6,197.2,325.2,197z M316.6,200.8c-5.6,1.2-10.4,3.6-14.4,7.2c-4,3.6-7,8-9.2,13
			s-3.4,10.4-3.8,16c-0.4,5.8,0.2,11.4,1.6,16.8c1.4,5.8,3.6,11.2,6.4,16.2s6.2,9,10.2,12.2c4,3.2,8.4,5.4,13.6,6.6
			c5,1.2,10.6,1,16.8-0.6c5.4-1.4,10-4,13.6-7.6c3.6-3.6,6.6-8,8.6-12.8c2-4.8,3.2-10,3.6-15.6c0.4-5.6,0-11-1.4-16.2
			c-1.4-6-3.6-11.4-6.4-16.4c-2.8-4.8-6.2-8.8-10.2-12c-4-3.2-8.6-5.4-13.4-6.8C327.2,199.6,322,199.6,316.6,200.8z"/>
		<path fill="#FFFFFF" d="M386.9,210.8c-0.2-2.2-0.6-4-1.2-5.6c-0.6-1.6-1.8-2.8-3.2-3.8c-1.4-1-3.6-1.4-6.2-1.4
			c-0.6,0-0.8-0.4-0.6-1c0-0.6,0.4-1,0.6-1c1.4,0,2.8,0.2,4,0.2c1.2,0,2.4,0.2,3.8,0.2c1.4,0,2.4,0,3.6,0c0.8,0,1.8,0,2.8,0
			c1,0,2,0,2.8-0.2c1,0,2,0,3.2-0.2l36.4,78.3l32.8-78.3c1,0,1.8,0.2,2.8,0.2c0.8,0,1.8,0.2,2.6,0.2c0.8,0,1.8,0,2.6,0
			c1.2,0,2.8,0,4.4,0s3.2,0,4.6-0.2c1.6,0,3.2,0,4.8-0.2c0.4,0,0.6,0.4,0.4,1s-0.2,1-0.4,1c-2.8,0-4.8,0.4-6.2,1.4s-2.6,2.2-3.2,3.8
			s-1,3.4-1.2,5.4s-0.2,4.4-0.2,6.8v54.2c0,2.4,0,4.8,0,6.8c0,2.2,0.4,4,1,5.4c0.6,1.6,1.6,2.8,3,3.8c1.4,1,3.6,1.4,6.6,1.4
			c0.4,0,0.6,0.4,0.8,1c0,0.6-0.2,1-0.8,1c-1.8,0-3.8,0-5.6-0.2c-1.6,0-3.4,0-5.2,0s-3.6,0-5,0c-1.6,0-3.2,0-5,0c-1.8,0-3.4,0-4.8,0
			c-1.8,0-3.4,0.2-5.2,0.2c-0.4,0-0.6-0.4-0.6-1c0-0.6,0.2-1,0.6-1c2.6,0,4.8-0.4,6.2-1.4c1.4-0.8,2.4-2.2,3-3.8s1-3.4,1-5.6
			c0-2.2,0-4.4,0-6.8l-0.2-66l-33.8,81.1c-0.4,1-1,2-1.4,3c-0.4,1-1,1.4-1.4,1.4h-1.2c-0.4-0.4-0.6-0.6-1-1c-0.2-0.4-0.6-1-1-2
			l-35.2-74.7v58.4c0,2.4,0,4.8,0.2,6.8c0.2,2,0.4,4,1.2,5.6c0.6,1.6,1.8,2.8,3.2,3.8c1.4,0.8,3.6,1.4,6.2,1.4
			c0.4,0,0.6,0.2,0.8,0.8c0,0.6-0.2,1-0.8,1c-1.6,0-3.2,0-4.8-0.2c-1.4,0-2.8,0-4.4,0c-1.6,0-3,0-4.4,0c-1.2,0-2.6,0-4,0
			c-1.4,0-2.8,0-4,0c-1.6,0-3,0.2-4.4,0.2c-0.6,0-0.8-0.4-0.8-1c0-0.6,0.2-1,0.8-1c2.8,0,4.8-0.4,6.2-1.4c1.4-0.8,2.4-2.2,3.2-3.8
			c0.6-1.6,1-3.4,1.2-5.6c0.2-2.2,0.2-4.4,0.2-6.8v-54C387.1,215.2,386.9,213,386.9,210.8z"/>
		<path fill="#FFFFFF" d="M500.4,210.8c-0.2-2.2-0.6-4-1.2-5.6c-0.6-1.6-1.8-2.8-3.2-3.8c-1.4-1-3.6-1.4-6.2-1.4
			c-0.6,0-0.8-0.4-0.6-1c0-0.6,0.4-1,0.6-1c1.4,0,2.8,0.2,4,0.2c1.2,0,2.4,0.2,3.8,0.2s2.4,0,3.6,0c0.8,0,1.8,0,2.8,0
			c1,0,2,0,2.8-0.2c1,0,2,0,3.2-0.2l36.4,78.3l32.8-78.3c1,0,1.8,0.2,2.8,0.2c0.8,0,1.8,0.2,2.6,0.2s1.8,0,2.6,0c1.2,0,2.8,0,4.4,0
			c1.6,0,3.2,0,4.6-0.2c1.6,0,3.2,0,4.8-0.2c0.4,0,0.6,0.4,0.4,1s-0.2,1-0.4,1c-2.8,0-4.8,0.4-6.2,1.4s-2.6,2.2-3.2,3.8
			c-0.6,1.6-1,3.4-1.2,5.4c-0.2,2-0.2,4.4-0.2,6.8v54.2c0,2.4,0,4.8,0,6.8c0,2.2,0.4,4,1,5.4c0.6,1.6,1.6,2.8,3,3.8
			c1.4,1,3.6,1.4,6.6,1.4c0.4,0,0.6,0.4,0.8,1c0,0.6-0.2,1-0.8,1c-1.8,0-3.8,0-5.6-0.2c-1.6,0-3.4,0-5.2,0s-3.6,0-5,0
			c-1.6,0-3.2,0-5,0s-3.4,0-4.8,0c-1.8,0-3.4,0.2-5.2,0.2c-0.4,0-0.6-0.4-0.6-1c0-0.6,0.2-1,0.6-1c2.8,0,4.8-0.4,6.2-1.4
			c1.4-0.8,2.4-2.2,3-3.8c0.6-1.6,1-3.4,1-5.6c0-2.2,0-4.4,0-6.8l-0.2-66l-33.6,81.3c-0.4,1-1,2-1.4,3c-0.4,1-1,1.4-1.4,1.4h-1.2
			c-0.4-0.4-0.6-0.6-1-1c-0.2-0.4-0.6-1-1-2L505,213.2v58.4c0,2.4,0,4.8,0.2,6.8c0.2,2,0.4,4,1.2,5.6c0.6,1.6,1.8,2.8,3.2,3.8
			c1.4,1,3.6,1.4,6.2,1.4c0.4,0,0.6,0.2,0.8,0.8c0,0.6-0.2,1-0.8,1c-1.6,0-3.2,0-4.8-0.2c-1.4,0-2.8,0-4.4,0c-1.6,0-3,0-4.4,0
			c-1.2,0-2.6,0-4,0c-1.4,0-2.8,0-4,0c-1.6,0-3,0.2-4.4,0.2c-0.6,0-0.8-0.4-0.8-1c0-0.6,0.2-1,0.8-1c2.8,0,4.8-0.4,6.2-1.4
			c1.4-0.8,2.4-2.2,3.2-3.8c0.6-1.6,1-3.4,1.2-5.6c0.2-2.2,0.2-4.4,0.2-6.8v-54C500.6,215.2,500.4,213,500.4,210.8z"/>
		<path fill="#FFFFFF" d="M650.3,197c6.6,0,12.8,1,18.6,3.4c5.8,2.4,11,5.6,15.4,10c4.4,4.2,8,9.4,10.6,15c2.6,5.8,4,12,4.2,18.6
			c0.2,6.8-0.8,13-3.2,18.8c-2.2,5.8-5.6,10.8-9.8,15.2c-4.2,4.4-9.2,7.8-15.2,10.4c-5.8,2.6-12.2,3.8-19,4
			c-6.6,0.2-12.8-1-18.6-3.4c-5.8-2.4-11-5.6-15.4-10c-4.4-4.2-7.8-9.2-10.6-15c-2.6-5.8-4-12-4.2-18.6c-0.2-6.6,1-12.8,3.4-18.6
			c2.4-5.8,5.8-11,10-15.4s9.2-7.8,15-10.4C637.5,198.6,643.7,197.2,650.3,197z M641.7,200.8c-5.6,1.2-10.4,3.6-14.4,7.2
			c-4,3.6-7,8-9.2,13c-2.2,5-3.4,10.4-3.8,16c-0.4,5.8,0.2,11.4,1.6,16.8c1.4,5.8,3.6,11.2,6.4,16.2s6.2,9,10.2,12.2
			c4,3.2,8.4,5.4,13.6,6.6c5,1.2,10.6,1,16.8-0.6c5.4-1.4,10-4,13.6-7.6c3.6-3.6,6.6-8,8.6-12.8c2-4.8,3.2-10,3.6-15.6
			c0.4-5.6,0-11-1.4-16.2c-1.4-6-3.6-11.4-6.4-16.4c-2.8-4.8-6.2-8.8-10.2-12c-4-3.2-8.4-5.4-13.2-6.6
			C652.3,199.6,647.1,199.6,641.7,200.8z"/>
		<path fill="#FFFFFF" d="M783.4,217.4c0-2.4,0-4.8,0-6.8c0-2.2-0.4-4-1-5.6c-0.6-1.6-1.6-2.8-3-3.8c-1.4-0.8-3.4-1.4-6.2-1.4
			c-0.4,0-0.6-0.4-0.8-1c0-0.6,0.2-1,0.8-1c1.4,0,3,0.2,4.4,0.2c1.2,0,2.6,0.2,4,0.2s2.8,0,4,0s2.8,0,4.4,0c1.6,0,3.2,0,4.4-0.2
			c1.6,0,3.2,0,4.8-0.2c0.4,0,0.6,0.2,0.6,0.8s-0.2,1-0.6,1c-2.8,0-4.8,0.4-6.2,1.4c-1.4,1-2.4,2.2-3,3.8c-0.6,1.6-1,3.4-1,5.6
			c0,2.2,0,4.4,0,6.8l-1,61c0,0-0.2,0.8-0.2,1.8c0,1.2,0,2.4,0,4s0,3.6-0.2,5.8c0,0.2-0.2,0.4-0.4,0.6c-0.4,0.2-0.6,0.2-1,0.2
			c-0.4,0-0.8,0-1,0c-0.2,0-0.6-0.4-1.2-0.8c0,0-1.2-1.4-3.2-3.6c-2-2.4-4.6-5.4-7.8-9.2s-6.8-8-10.8-12.8c-4-4.8-8-9.6-12.2-14.6
			l-32.8-39.2l0.8,61c0,2.4,0,4.8,0,6.8c0,2.2,0.4,4,1,5.6c0.6,1.6,1.6,2.8,3,3.8c1.4,1,3.4,1.4,6.2,1.4c0.4,0,0.6,0.2,0.8,1
			c0.2,0.8-0.2,1-0.8,1c-1.6,0-3.2,0-4.8-0.2c-1.4,0-2.8,0-4.4,0c-1.6,0-3,0-4.4,0c-1.2,0-2.6,0-4,0s-2.8,0-4,0
			c-1.6,0-3,0.2-4.4,0.2c-0.6,0-0.8-0.4-0.8-1c0-0.6,0.2-1,0.8-1c2.8,0,4.8-0.4,6-1.4c1.4-0.8,2.4-2.2,3-3.8c0.6-1.6,1-3.4,1-5.6
			s0-4.4,0-6.8l1-54c0-2.4,0-4.8-0.2-6.8c-0.2-2.2-0.6-4-1.2-5.6c-0.8-1.6-1.8-2.8-3.2-3.8c-1.4-1-3.6-1.4-6.2-1.4
			c-0.6,0-1-0.2-1-0.8s0.4-1,1-1c1.2,0,2.2,0.2,3.4,0.2c1,0,2,0.2,3.2,0.2c1,0,2.2,0,3.2,0c0.8,0,1.6,0,2.6,0c1,0,1.8,0,2.6-0.2
			c1,0,2,0,3-0.2c11.8,14.2,22.6,27,32,38c4,4.8,8,9.4,11.8,14c3.8,4.6,7.2,8.6,10.2,12.2c3,3.6,6.4,7.6,10,11.8L783.4,217.4z"/>
	</g>
	<g>
		<path fill="#FFFFFF" d="M84.1,393.2c1.2,1.4,2.2,2.6,3.6,3.4c1.2,0.8,2.4,1.6,3.8,2c1.4,0.4,2.8,1,4.2,1.4c0.2,0,0.2,0.4,0.2,1
			c0,0.6-0.2,1-0.6,0.8c-1.8,0-3.8,0-5.6-0.2c-1.6,0-3.2,0-5,0c-1.8,0-3.4,0-5,0c-1.6,0-3.4,0-5.4,0c-2,0-3.8,0-5.4,0
			c-2,0-4,0.2-6,0.2c-0.2,0-0.4-0.2-0.6-0.8c0-0.6,0.2-1,0.8-1.2h3.2c2.8,0,4.8-0.8,6-2.6c1-1.8,0.8-4.4-1-8l-10.8-24.8H29L19.6,392
			c-0.2,0.8-0.4,1.6-0.6,2.6c0,1,0,1.8,0.2,2.6c0.2,0.8,0.8,1.4,1.6,2c0.8,0.6,2,0.8,3.4,0.8h2.2c0.4,0,0.6,0.4,0.8,1
			c0,0.6-0.2,0.8-0.8,1c-1.4,0-3,0-4.4-0.2c-1.2,0-2.6,0-4.2,0s-3,0-4.2,0s-2.6,0-4.2,0c-1.4,0-2.8,0-4.2,0c-1.6,0-3,0.2-4.4,0.2
			c-0.2,0-0.4,0-0.6-0.2c-0.2-0.4-0.2-0.6-0.2-1c0-0.2,0-0.6,0.2-0.8c0-0.2,0.4-0.4,0.6-0.4c1.8-0.2,3.2-0.6,4.6-1s2.6-1.2,3.8-2
			c1.2-1,2.2-2.2,3.2-3.8c1-1.6,2-3.6,2.8-6.2l30.2-77.9h1.8l33.4,78.5C81.9,389.8,82.9,391.8,84.1,393.2z M59,361.3l-15.4-38.4
			l-13.4,38.4H59z"/>
		<path fill="#FFFFFF" d="M117.7,389.2c0,2.2,0.4,4,1.2,5.6c0.6,1.6,1.8,2.8,3.2,3.8c1.4,1,3.6,1.4,6.2,1.4c0.4,0,0.6,0.4,0.6,1
			s-0.2,1-0.6,1c-2,0-4,0-5.8-0.2c-1.6,0-3.4,0-5.2,0c-1.8,0-3.4,0-5,0c-1.6,0-3.2,0-4.8,0c-1.6,0-3.2,0-4.8,0
			c-1.8,0-3.4,0.2-5.2,0.2c-0.4,0-0.6-0.2-0.6-0.8c0-0.6,0.2-1,0.6-1c2.8,0,4.8-0.4,6.2-1.4c1.4-0.8,2.4-2.2,3-3.8
			c0.6-1.6,1-3.4,1-5.6s0-4.4,0-6.8v-54.2c0-2.4,0-4.8-0.2-6.8c0-2.2-0.4-4-1.2-5.6c-0.6-1.6-1.8-2.8-3.2-3.8
			c-1.4-1-3.4-1.4-6.2-1.4c-0.4,0-0.8-0.4-0.8-1c0-0.6,0.2-1,0.8-1c1.8,0,3.8,0.2,5.8,0.2c1.8,0,3.6,0.2,5.4,0.2c2,0,3.6,0,5.4,0
			s3.6,0,5.6,0c1.8,0,3.6,0,5-0.2c1.8,0,3.6,0,5.2-0.2c2.2,0,4.6,0,7,0s5,0.4,7.2,1c2.4,0.6,4.6,1.6,6.8,3c2.2,1.4,4.2,3.2,6,5.6
			c2.4,3.4,3.8,7,4,11s-0.2,7.8-1.6,11.2c-1.6,4.4-3.8,7.6-6.8,9.6c-3,2-6.6,3.6-10.8,4.4c-1.8,0.4-3.6,0.6-5.6,1
			c-2,0.2-4.2,0.4-6.4,0.6c-2.2,0-4.2,0-6.4,0c-2,0-4-0.2-5.6-0.6v26.6C117.7,384.8,117.7,387.2,117.7,389.2z M123.7,352.1
			c2.2,0.6,4.2,1,6.4,1c2.2,0.2,4.4,0,6.4-0.4c2-0.4,4-1.2,5.8-2.4c3.4-2.2,5.6-5,6.8-8.4c1.2-3.2,1.6-6.6,1.4-9.6
			c0-1.6-0.4-3.2-0.8-5c-0.4-1.8-1.2-3.6-2.2-5.2c-1-1.8-2.2-3.4-3.6-4.8c-1.4-1.4-3.2-2.8-5.2-3.8c-1.4-0.8-3-1.2-5-1.6
			c-2-0.4-4-0.6-6-0.8c-2-0.2-4-0.2-5.8,0c-1.8,0.2-3.2,0.4-4.2,0.6v38.2C119.5,350.7,121.5,351.5,123.7,352.1z"/>
		<path fill="#FFFFFF" d="M183.9,389.2c0,2.2,0.4,4,1.2,5.6c0.6,1.6,1.8,2.8,3.2,3.8c1.4,1,3.6,1.4,6.2,1.4c0.4,0,0.6,0.4,0.6,1
			s-0.2,1-0.6,1c-2,0-4,0-5.8-0.2c-1.6,0-3.4,0-5.2,0s-3.4,0-5,0s-3.2,0-4.8,0s-3.2,0-4.8,0c-1.8,0-3.4,0.2-5.2,0.2
			c-0.4,0-0.6-0.2-0.6-0.8c0-0.6,0.2-1,0.6-1c2.8,0,4.8-0.4,6.2-1.4c1.4-0.8,2.4-2.2,3-3.8c0.6-1.6,1-3.4,1-5.6s0-4.4,0-6.8v-54.2
			c0-2.4,0-4.8-0.2-6.8c0-2.2-0.4-4-1.2-5.6c-0.6-1.6-1.8-2.8-3.2-3.8c-1.4-1-3.4-1.4-6.2-1.4c-0.4,0-0.8-0.4-0.8-1
			c0-0.6,0.2-1,0.8-1c1.8,0,3.8,0.2,5.8,0.2c1.8,0,3.6,0.2,5.4,0.2c2,0,3.6,0,5.4,0c1.8,0,3.6,0,5.6,0c1.8,0,3.6,0,5-0.2
			c1.8,0,3.6,0,5.2-0.2c2.2,0,4.6,0,7,0s5,0.4,7.2,1c2.4,0.6,4.6,1.6,6.8,3c2.2,1.4,4.2,3.2,6,5.6c2.4,3.4,3.8,7,4,11
			s-0.2,7.8-1.6,11.2c-1.6,4.4-3.8,7.6-6.8,9.6c-3,2-6.6,3.6-10.8,4.4c-1.8,0.4-3.6,0.6-5.6,1c-2,0.2-4.2,0.4-6.4,0.6
			c-2.2,0-4.2,0-6.4,0c-2,0-4-0.2-5.6-0.6v26.6C183.9,384.8,183.9,387.2,183.9,389.2z M189.9,352.1c2.2,0.6,4.2,1,6.4,1
			c2.2,0.2,4.4,0,6.4-0.4c2-0.4,4-1.2,5.8-2.4c3.4-2.2,5.6-5,6.8-8.4c1.2-3.2,1.6-6.6,1.4-9.6c0-1.6-0.4-3.2-0.8-5
			c-0.4-1.8-1.2-3.6-2.2-5.2c-1-1.8-2.2-3.4-3.6-4.8c-1.4-1.4-3.2-2.8-5.2-3.8c-1.4-0.8-3-1.2-5-1.6c-2-0.4-4-0.6-6-0.8
			c-2-0.2-4-0.2-5.8,0c-1.8,0.2-3.2,0.4-4.2,0.6v38.2C185.7,350.7,187.7,351.5,189.9,352.1z"/>
		<path fill="#FFFFFF" d="M249.4,386c0,1.4,0,3,0.2,4.6c0.2,1.6,0.4,3.2,0.8,4.6c0.4,1.4,1,2.4,2,3c1.2,0.8,3.4,1.2,6.4,1.2
			c3.2,0.2,6.4,0,10-0.2c3.6-0.2,6.8-0.6,10-1s5.2-1,6.4-1.6c2.2-1,3.8-2,5.2-3c1.2-1.2,2.2-2.4,3.2-3.8c0.8-1.4,1.4-2.8,1.8-4.4
			c0.4-1.6,0.8-3.4,1.4-5.2l1.4,0.4l-2.2,21h-10.8c-3.2,0-7,0-11,0c-4,0-8.2,0-12.4,0c-4,0-8,0-11.8,0s-7.2,0-10.2,0
			c-3,0-6.4,0-10,0c-0.4,0-0.6-0.2-0.6-1s0.2-1,0.6-1c2.8,0,4.8-0.4,6.2-1.4c1.4-1,2.4-2.2,3-3.8c0.6-1.6,1-3.4,1-5.6
			c0-2.2,0.2-4.4,0.2-6.8v-54c0-2.4,0-4.8-0.2-6.8c0-2.2-0.4-4-1-5.6c-0.6-1.6-1.6-2.8-3-3.8c-1.4-0.8-3.4-1.4-6-1.4
			c-0.4,0-0.6-0.4-0.6-1c0-0.6,0.2-1,0.6-1c1.8,0,3.6,0.2,5.4,0.2c1.6,0,3.2,0.2,5,0.2c1.8,0,3.4,0,5,0c1.4,0,3,0,4.8,0
			c1.8,0,3.4,0,4.8-0.2c1.8,0,3.4,0,5.2-0.2c0.4,0,0.6,0.4,0.6,1c0,0.6-0.2,1-0.6,1c-2.8,0-4.8,0.4-6.2,1.4c-1.4,1-2.4,2.2-3,3.8
			c-0.6,1.6-1,3.4-1,5.6c0,2.2-0.2,4.4-0.2,6.8v54.4C249.4,383.4,249.4,384.6,249.4,386z"/>
		<path fill="#FFFFFF" d="M320.4,389.2c0,2.2,0.4,4,1.2,5.6c0.6,1.6,1.8,2.8,3.2,3.8c1.4,1,3.6,1.4,6.2,1.4c0.4,0,0.6,0.4,0.6,1
			s-0.2,1-0.6,1c-1.8,0-3.8,0-5.6-0.2c-1.6,0-3.4,0-5.2,0c-1.8,0-3.4,0-5,0s-3.2,0-4.8,0c-1.6,0-3.2,0-4.8,0c-1.8,0-3.4,0.2-5.2,0.2
			c-0.4,0-0.6-0.4-0.6-1s0.2-1,0.6-1c2.8,0,4.8-0.4,6.2-1.4c1.4-1,2.4-2.2,3-3.6c0.6-1.6,1-3.4,1-5.6s0-4.4,0-6.8v-54
			c0-2.4,0-4.8,0-6.8c0-2.2-0.4-4-1-5.6c-0.6-1.6-1.6-2.8-3-3.8c-1.4-0.8-3.4-1.4-6.2-1.4c-0.4,0-0.6-0.2-0.8-0.8c0-0.6,0.2-1,0.8-1
			c1.8,0,3.6,0.2,5.4,0.2c1.6,0,3.2,0.2,5,0.2s3.4,0,5,0c1.4,0,3,0,4.8,0s3.4,0,5-0.2c1.8,0,3.4,0,5.2-0.2c0.8,0,1,0.2,1,0.8
			c0,0.6-0.4,1-1,1c-2.8,0-4.8,0.4-6.2,1.4c-1.4,1-2.4,2.2-3,3.8c-0.6,1.6-1,3.4-1,5.6s-0.2,4.4-0.2,6.8v54
			C320.4,384.8,320.4,387,320.4,389.2z"/>
		<path fill="#FFFFFF" d="M415.9,326.3c0,0.4-0.2,0.8-0.2,1c0,0.2,0,0.6,0,1c-2.6-3.8-5.2-7-7.8-9.4c-2.6-2.4-5.2-4.2-7.8-5.6
			c-2.8-1.4-5.6-2.2-8.4-2.8c-3-0.4-6-0.8-9.4-0.8c-2,0-4.4,0.2-7,0.6c-2.6,0.4-5.4,1.2-8.2,2.2c-2.8,1.2-5.4,2.6-8.2,4.6
			c-2.6,2-5,4.6-7,7.6c-2,3.2-3.6,7-4.8,11.4s-2,9-2.2,13.8c-0.4,4.6-0.2,9.2,0.4,13.8c0.6,4.4,1.4,8.2,2.8,11.2
			c2.8,7,6.8,12.6,11.8,16.4c5,4,10.8,6.6,17.2,7.8c5.8,1.2,11.8,0.8,17.6-1.2c5.8-2,11.6-5.8,17.4-11.6c0.8-0.8,1.6-1.6,2.2-2.2
			c0.6-0.6,1.2-1.2,1.4-1.6c0.2-0.4,0.6-0.8,0.8-1.2c0.4-0.4,0.6-0.6,0.8-1l0.2-0.4l0.6-0.6l0.2-0.6l0.4,0.4l0.6,7.2
			c-4,4-8.2,7.2-12.6,9.6c-4.4,2.4-9,4.2-13.6,5.2c-4.6,1.2-9,1.6-13.4,1.6s-8.2-0.6-11.8-1.6c-3.8-0.8-7.4-2.2-10.6-3.8
			c-3.4-1.6-6.4-3.6-9.2-6c-2.8-2.4-5.2-5.2-7.4-8.4c-2.2-3.2-3.8-7-5-11.2c-1-3.4-1.6-7.2-1.6-11.6s0.4-9,1.4-13.8
			c1-4.6,2.4-9.2,4.4-13.8c2-4.4,4.6-8.4,7.8-11.8c4-4.4,8.8-7.6,14.4-9.6c5.4-2,11-3.2,16.6-3.8c5.6-0.4,11-0.4,16.2,0.2
			c5.2,0.6,9.4,1.2,13,2c0.2,0,1,0.2,2,0.4c1,0.2,1.6,0.2,1.8,0.2c0.2,0.2,1,0.4,2,0.8s1.6,0.6,1.8,0.8v14.6H415.9z"/>
		<path fill="#FFFFFF" d="M498.6,393.2c1.2,1.4,2.2,2.6,3.6,3.4c1.2,0.8,2.4,1.6,3.8,2c1.2,0.4,2.8,1,4.2,1.4c0.2,0,0.2,0.4,0.2,1
			c0,0.6-0.2,1-0.6,0.8c-1.8,0-3.8,0-5.6-0.2c-1.6,0-3.2,0-5,0c-1.8,0-3.4,0-5,0c-1.6,0-3.4,0-5.4,0c-2,0-3.8,0-5.4,0
			c-2,0-4,0.2-6,0.2c-0.2,0-0.4-0.2-0.6-0.8c0-0.6,0.2-1,0.8-1.2h3.2c2.8,0,4.8-0.8,6-2.6c1-1.8,0.8-4.4-1-8L475,364.3h-31.4
			l-9.4,27.2c-0.2,0.8-0.4,1.6-0.6,2.6c0,1,0,1.8,0.2,2.6c0.2,0.8,0.8,1.4,1.6,2s2,0.8,3.4,0.8h2.2c0.4,0,0.6,0.4,0.8,1
			c0,0.6-0.2,0.8-0.8,1c-1.4,0-3,0-4.4-0.2c-1.2,0-2.6,0-4.2,0c-1.6,0-3,0-4.2,0c-1.2,0-2.6,0-4.2,0c-1.4,0-2.8,0-4.2,0
			c-1.6,0-3,0.2-4.4,0.2c-0.2,0-0.4,0-0.6-0.2c-0.2-0.2-0.2-0.4-0.2-0.6c0-0.2,0-0.6,0.2-0.8c0-0.2,0.4-0.4,0.6-0.4
			c1.8-0.2,3.2-0.6,4.6-1c1.4-0.4,2.6-1.2,3.8-2c1.2-1,2.2-2.2,3.2-3.8c1-1.6,2-3.6,2.8-6.2l30.2-77.9h1.8l33.4,78.5
			C496.4,389.8,497.4,391.8,498.6,393.2z M473.4,361.3l-15.2-38.4l-13.4,38.4H473.4z"/>
		<path fill="#FFFFFF" d="M527.6,309.1c3.8,0,8,0,12.6,0c4.6,0,8.8,0,12.8-0.2c4.6,0,9.2-0.2,14-0.2l0.8,0.6v22
			c0,0.4-0.4,0.6-0.8,0.4c-0.4,0-0.8-0.2-0.8-0.4c-0.4-1.8-0.8-3.4-1.2-5.4c-0.4-1.8-0.8-3.2-1-3.8c-1.4-2.6-3-4.4-5.2-5.6
			c-2-1.2-4.2-2.2-6.6-2.6c-2.2-0.4-4.6-0.6-6.8-0.6s-4,0-5.6,0H532v68.9c0,2.4,0,4.8,0.2,6.8c0,2.2,0.4,4,1.2,5.6
			c0.6,1.6,1.8,2.8,3.2,3.8c1.4,1,3.6,1.4,6.2,1.4c0.4,0,0.6,0.4,0.6,1s-0.2,1-0.6,1c-1.8,0-3.8,0-5.6-0.2c-1.6,0-3.4,0-5.2,0
			s-3.4,0-5,0c-1.6,0-3.2,0-4.8,0c-1.6,0-3.2,0-4.8,0c-1.8,0-3.4,0.2-5.2,0.2c-0.4,0-0.6-0.4-0.6-1s0.2-1,0.6-1
			c2.8,0,4.8-0.4,6.2-1.4s2.4-2.2,3-3.8c0.6-1.6,1-3.4,1-5.6c0-2.2,0-4.4,0-6.8v-68.9h-8.2c-1.6,0-3.4,0-5.6,0
			c-2.2,0-4.6,0.2-6.8,0.6c-2.2,0.4-4.4,1.4-6.6,2.6c-2,1.2-3.8,3.2-5,5.6c-0.4,0.8-0.8,2-1.2,3.8c-0.4,1.8-0.8,3.6-1.2,5.4
			c0,0.2-0.2,0.4-0.8,0.4c-0.4,0-0.8-0.2-0.8-0.4v-22l0.6-0.6c4.8,0,9.6,0.2,14.4,0.2c4.2,0,8.6,0.2,13.2,0.2
			C519,309.1,523.4,309.1,527.6,309.1z"/>
		<path fill="#FFFFFF" d="M590,389.2c0,2.2,0.4,4,1.2,5.6c0.6,1.6,1.8,2.8,3.2,3.8c1.4,1,3.6,1.4,6.2,1.4c0.4,0,0.6,0.4,0.6,1
			s-0.2,1-0.6,1c-1.8,0-3.8,0-5.6-0.2c-1.6,0-3.4,0-5.2,0s-3.4,0-5,0c-1.6,0-3.2,0-4.8,0c-1.6,0-3.2,0-4.8,0c-1.8,0-3.4,0.2-5.2,0.2
			c-0.4,0-0.6-0.4-0.6-1s0.2-1,0.6-1c2.8,0,4.8-0.4,6.2-1.4c1.4-1,2.4-2.2,3-3.6c0.6-1.6,1-3.4,1-5.6s0-4.4,0-6.8v-54
			c0-2.4,0-4.8,0-6.8c0-2.2-0.4-4-1-5.6c-0.6-1.6-1.6-2.8-3-3.8c-1.4-0.8-3.4-1.4-6.2-1.4c-0.4,0-0.6-0.2-0.8-0.8c0-0.6,0.2-1,0.8-1
			c1.8,0,3.6,0.2,5.4,0.2c1.6,0,3.2,0.2,5,0.2s3.4,0,5,0c1.4,0,3,0,4.8,0s3.4,0,5-0.2c1.8,0,3.4,0,5.2-0.2c0.8,0,1,0.2,1,0.8
			c0,0.6-0.4,1-1,1c-2.8,0-4.8,0.4-6.2,1.4c-1.4,1-2.4,2.2-3,3.8c-0.6,1.6-1,3.4-1,5.6s-0.2,4.4-0.2,6.8v54
			C590,384.8,590,387,590,389.2z"/>
		<path fill="#FFFFFF" d="M650.5,307.7c6.6,0,12.8,1,18.6,3.4c5.8,2.4,11,5.6,15.4,10c4.4,4.2,8,9.4,10.6,15c2.6,5.8,4,12,4.2,18.6
			c0.2,6.8-0.8,13-3.2,18.8c-2.2,5.8-5.6,10.8-9.8,15.2c-4.2,4.4-9.2,7.8-15.2,10.4c-5.8,2.6-12.2,3.8-19,4
			c-6.6,0.2-12.8-1-18.6-3.4s-11-5.6-15.4-10c-4.4-4.2-7.8-9.2-10.6-15c-2.6-5.8-4-12-4.2-18.6c-0.2-6.6,1-12.8,3.4-18.6
			c2.4-5.8,5.8-11,10-15.4c4.2-4.4,9.2-7.8,15-10.4C637.7,309.3,643.9,307.9,650.5,307.7z M641.7,311.5c-5.6,1.2-10.4,3.6-14.4,7.2
			c-4,3.6-7,8-9.2,13c-2.2,5-3.4,10.4-3.8,16c-0.4,5.8,0.2,11.4,1.6,16.8c1.4,5.8,3.6,11.2,6.4,16.2s6.2,9,10.2,12.2
			c4,3.2,8.4,5.4,13.6,6.6c5,1.2,10.6,1,16.8-0.6c5.4-1.4,10-4,13.6-7.6c3.6-3.6,6.6-8,8.6-12.8c2-4.8,3.2-10,3.6-15.6
			c0.4-5.6,0-11-1.4-16.2c-1.4-6-3.6-11.4-6.4-16.4c-2.8-4.8-6.2-8.8-10.2-12c-4-3.2-8.4-5.4-13.2-6.6
			C652.5,310.3,647.3,310.3,641.7,311.5z"/>
		<path fill="#FFFFFF" d="M783.4,328.3c0-2.4,0-4.8,0-6.8c0-2.2-0.4-4-1-5.6c-0.6-1.6-1.6-2.8-3-3.8c-1.4-0.8-3.4-1.4-6.2-1.4
			c-0.4,0-0.6-0.4-0.8-1c0-0.6,0.2-1,0.8-1c1.4,0,3,0.2,4.4,0.2c1.2,0,2.6,0.2,4,0.2s2.8,0,4,0s2.8,0,4.4,0c1.6,0,3.2,0,4.4-0.2
			c1.6,0,3.2,0,4.8-0.2c0.4,0,0.6,0.2,0.6,0.8c0,0.6-0.2,1-0.6,1c-2.8,0-4.8,0.4-6.2,1.4c-1.4,1-2.4,2.2-3,3.8c-0.6,1.6-1,3.4-1,5.6
			c0,2.2,0,4.4,0,6.8l-1,61c0,0-0.2,0.8-0.2,1.8s0,2.4,0,4c0,1.6,0,3.6-0.2,5.8c0,0.2-0.2,0.4-0.4,0.6c-0.4,0.2-0.6,0.2-1,0.2
			c-0.4,0-0.8,0-1,0c-0.2,0-0.6-0.4-1.2-0.8c0,0-1.2-1.2-3.2-3.6s-4.6-5.4-7.8-9.2s-6.8-8-10.8-12.8c-4-4.8-8-9.6-12.2-14.6
			l-33.2-39.4l0.8,61c0,2.4,0,4.8,0,6.8c0,2.2,0.4,4,1,5.6c0.6,1.6,1.6,2.8,3,3.8s3.4,1.4,6.2,1.4c0.4,0,0.6,0.2,0.8,1
			c0,0.8-0.2,1-0.8,1c-1.6,0-3.2,0-4.8-0.2c-1.4,0-2.8,0-4.4,0c-1.6,0-3,0-4.4,0c-1.2,0-2.6,0-4,0s-2.8,0-4,0c-1.6,0-3,0.2-4.4,0.2
			c-0.6,0-0.8-0.4-0.8-1s0.2-1,0.8-1c2.8,0,4.8-0.4,6-1.4c1.2-1,2.4-2.2,3-3.8c0.6-1.6,1-3.4,1-5.6c0-2.2,0-4.4,0-6.8l1-53.8
			c0-2.4,0-4.8-0.2-6.8c-0.2-2.2-0.6-4-1.2-5.6c-0.8-1.6-1.8-2.8-3.2-3.8c-1.4-1-3.6-1.4-6.2-1.4c-0.6,0-1-0.2-1-0.8s0.4-1,1-1
			c1.2,0,2.2,0.2,3.4,0.2c1,0,2,0.2,3.2,0.2c1,0,2.2,0,3.2,0c0.8,0,1.6,0,2.6,0c1,0,1.8,0,2.6-0.2c1,0,2,0,3-0.2
			c11.8,14.2,22.6,27,32,38c4,4.8,8,9.4,11.8,14s7.2,8.6,10.2,12.2c3,3.6,6.4,7.6,10,11.8L783.4,328.3z"/>
	</g>
	<g>
		<rect x="2.4" y="292.3" fill="#FFFFFF" width="186.7" height="1"/>
	</g>
</g>
</svg>
