<svg id="Color_Logo" data-name="Color Logo" xmlns="http://www.w3.org/2000/svg" viewBox="0 0 375.47 151.85"><defs><style>.cls-1{fill:#fff;}</style></defs><title>IREX_Logo_White</title><path class="cls-1" d="M193.43,106.32a5,5,0,1,1-9.93,0V41.75a5,5,0,1,1,9.93,0Z"/><path class="cls-1" d="M225.88,83.27h-9.5v23.05a5,5,0,1,1-9.93,0V41.54a4.26,4.26,0,0,1,4.16-4.27h24.12c15.48,0,21.77,11.53,21.77,23.05,0,10.89-5.44,21.45-19.21,22.63l14.41,20.49a4.95,4.95,0,1,1-8.11,5.66Zm-9.39-36.71V74H234c9,0,12.27-6.83,12.27-13.66S243,46.56,234.42,46.56Z"/><path class="cls-1" d="M274.86,79.32v22.2H305.6a4.64,4.64,0,1,1,0,9.29H270a5.17,5.17,0,0,1-5-5.12V42.39a5.17,5.17,0,0,1,5-5.12h34.37a4.64,4.64,0,1,1,0,9.29H274.86V70h25.4a4.64,4.64,0,1,1,0,9.29Z"/><path class="cls-1" d="M329,109.21a5.2,5.2,0,0,1-7,1.28,4.89,4.89,0,0,1-1.07-7l20.81-32.13-18.14-26.9A5,5,0,1,1,332,39.19l15.69,24,15.69-24a5,5,0,1,1,8.43,5.23l-18.14,26.9,20.81,32.13a4.89,4.89,0,0,1-1.07,7,5.2,5.2,0,0,1-7-1.28L347.65,79.54Z"/><path class="cls-1" d="M89.59,98.32a82.05,82.05,0,0,1-2.32-11,81.84,81.84,0,0,0-69.62,23.36L11.33,117a5.25,5.25,0,0,0,7.42,7.43l6.33-6.33A71.45,71.45,0,0,1,89.59,98.32Z"/><path class="cls-1" d="M99.06,93c0-.07,0-.14-.05-.22Z"/><path class="cls-1" d="M49.9,142.89a5.25,5.25,0,1,0,7.42,7.43,26.34,26.34,0,0,1,37.2,0,5.25,5.25,0,0,0,7.42-7.43A36.85,36.85,0,0,0,49.9,142.89Z"/><path class="cls-1" d="M110.65,134.19A82.53,82.53,0,0,1,95,112.48a59.66,59.66,0,0,0-61.27,14.29l-6.33,6.33a5.25,5.25,0,1,0,7.42,7.42l6.33-6.33a49.16,49.16,0,0,1,69.44,0h0Z"/><path class="cls-1" d="M53.71,33.65l0,0q-1-1.69-2.12-3.35l-.08-.12Q49.36,27,46.92,24l-.37-.46q-1.14-1.38-2.34-2.71l-.43-.47c-.84-.91-1.69-1.81-2.57-2.7l-6.48-6.48a5.25,5.25,0,0,0-7.42,7.42l6.48,6.48c.76.76,1.49,1.54,2.21,2.32l.46.5q1,1.17,2,2.37l.28.34q.95,1.16,1.84,2.36l.22.29q1,1.31,1.87,2.65l.21.31A71.4,71.4,0,0,1,54.84,75.93c0,.08,0,.15,0,.23a72.78,72.78,0,0,1-1.32,13.39,81.46,81.46,0,0,1,11-2.3A81.7,81.7,0,0,0,53.71,33.65Z"/><path class="cls-1" d="M18.76,27.45a5.25,5.25,0,0,0-7.42,7.42l6.33,6.33a49.16,49.16,0,0,1,0,69.44h0A82.87,82.87,0,0,1,39.39,95,59.66,59.66,0,0,0,25.08,33.78Z"/><path class="cls-1" d="M9,49.9a5.25,5.25,0,0,0-7.42,7.42,26.14,26.14,0,0,1,7.7,18.6,26.13,26.13,0,0,1-7.7,18.6A5.25,5.25,0,0,0,9,102a36.57,36.57,0,0,0,10.78-26A36.57,36.57,0,0,0,9,49.9Z"/><path class="cls-1" d="M75.93,19.73A36.69,36.69,0,0,0,102,9a5.25,5.25,0,1,0-7.42-7.42,26.34,26.34,0,0,1-37.2,0A5.25,5.25,0,1,0,49.9,9,36.69,36.69,0,0,0,75.93,19.73Z"/><path class="cls-1" d="M140.52,27.45a5.25,5.25,0,0,0-7.42,0l-6.33,6.33A71.45,71.45,0,0,1,62.25,53.53a82,82,0,0,1,2.3,11,83,83,0,0,0,11.58.82A81.83,81.83,0,0,0,134.19,41.2l6.33-6.33A5.25,5.25,0,0,0,140.52,27.45Z"/><path class="cls-1" d="M75.93,42.51a59.42,59.42,0,0,0,42.15-17.43l6.4-6.4a5.25,5.25,0,0,0-7.42-7.42l-6.4,6.4a49.16,49.16,0,0,1-69.44,0A82.51,82.51,0,0,1,56.81,39.38,59.9,59.9,0,0,0,75.93,42.51Z"/><path class="cls-1" d="M118.07,126.77A71.73,71.73,0,0,1,98.32,62.29a81.44,81.44,0,0,1-11,2.31,82.18,82.18,0,0,0,23.35,69.59l6.43,6.43a5.25,5.25,0,1,0,7.43-7.42Z"/><path class="cls-1" d="M134.19,110.65a49.16,49.16,0,0,1,0-69.44,82.85,82.85,0,0,1-21.72,15.63,59.67,59.67,0,0,0,14.3,61.24l6.33,6.33a5.25,5.25,0,0,0,7.42-7.43Z"/><path class="cls-1" d="M150.31,57.32a5.25,5.25,0,0,0-7.43-7.42,36.85,36.85,0,0,0,0,52.05,5.25,5.25,0,1,0,7.42-7.42A26.34,26.34,0,0,1,150.31,57.32Z"/></svg>