<?xml version="1.0" encoding="utf-8"?>
<!-- Generator: Adobe Illustrator 23.0.2, SVG Export Plug-In . SVG Version: 6.00 Build 0)  -->
<svg version="1.1" id="Layer_1" xmlns="http://www.w3.org/2000/svg" xmlns:xlink="http://www.w3.org/1999/xlink" x="0px" y="0px"
	 viewBox="0 0 130 49" style="enable-background:new 0 0 130 49;" xml:space="preserve">
<style type="text/css">
	.st0{fill:#FFFFFF;}
</style>
<path class="st0" d="M0,12.2L0,12.2C0,19,5.5,24.4,12.3,24.4V12.2H0z"/>
<path class="st0" d="M24.4,36.7c0-6.8-5.5-12.3-12.2-12.3v12.3H24.4z"/>
<path class="st0" d="M0,36.7L0,36.7C0,43.5,5.5,49,12.3,49V36.7H0z"/>
<path class="st0" d="M24.4,12.2C24.4,5.5,19,0,12.3,0v12.3L24.4,12.2L24.4,12.2z"/>
<path class="st0" d="M42.4,23.1L42.2,23c-1.6-0.6-2.8-1.1-2.8-2.3c0-1.1,0.8-1.7,2.1-1.7c1.4,0,2.2,0.7,2.2,2v0.2v0.3H44h2.2h0.3
	v-0.2c0-1.3-0.4-2.5-1.2-3.3c-0.9-0.9-2.1-1.3-3.7-1.3c-2.8,0-4.8,1.7-4.8,4.2c0,3,2.5,3.9,4.2,4.6h0.1c1.6,0.6,2.9,1.1,2.9,2.4
	c0,1.2-0.9,2-2.3,2c-1.4,0-2.4-0.9-2.4-2.3v-0.1v-0.3h-0.4h-2.3h-0.3v0.3c0,3.1,1.9,5,5.2,5c1.5,0,2.8-0.5,3.7-1.4
	c0.8-0.8,1.3-1.9,1.3-3.2C46.6,25,44.4,23.9,42.4,23.1z"/>
<path class="st0" d="M117.9,23.1l-0.2-0.1c-1.6-0.6-2.8-1.1-2.8-2.3c0-1.1,0.8-1.7,2.1-1.7c1.4,0,2.2,0.7,2.2,2v0.2v0.3h0.3h2.2h0.2
	v-0.2c0-1.3-0.4-2.5-1.2-3.3c-0.9-0.9-2.1-1.3-3.7-1.3c-2.8,0-4.8,1.7-4.8,4.2c0,3,2.5,3.9,4.2,4.6h0.1c1.6,0.6,2.9,1.1,2.9,2.4
	c0,1.2-0.9,2-2.3,2s-2.4-0.9-2.4-2.3v-0.1v-0.3h-0.3h-2.3h-0.3v0.3c0,3.1,1.9,5,5.2,5c1.5,0,2.8-0.5,3.7-1.4
	c0.8-0.8,1.3-1.9,1.3-3.2C122.1,25,120,23.9,117.9,23.1z"/>
<path class="st0" d="M58.9,16.6c-4.4,0-7.9,3.5-7.9,7.9s3.5,7.9,7.9,7.9s7.9-3.5,7.9-7.9S63.3,16.6,58.9,16.6z M58.9,29.6
	c-2.9,0-5.2-2.3-5.2-5.2s2.3-5.2,5.2-5.2s5.2,2.3,5.2,5.2C64.1,27.3,61.8,29.6,58.9,29.6z"/>
<path class="st0" d="M99.5,16.6c-4.4,0-7.9,3.5-7.9,7.9s3.5,7.9,7.9,7.9s7.9-3.5,7.9-7.9C107.4,20,103.9,16.6,99.5,16.6z M99.5,29.6
	c-2.9,0-5.2-2.3-5.2-5.2s2.3-5.2,5.2-5.2c2.9,0,5.2,2.3,5.2,5.2S102.3,29.6,99.5,29.6z"/>
<polygon class="st0" points="84.1,17 79.3,21.7 74.4,17 71.9,17 71.9,31.9 74.6,31.9 74.6,20.8 79.3,25.5 84,20.8 84,31.9 
	86.6,31.9 86.6,17 "/>
<g>
	<path class="st0" d="M124.9,19.5c0-1.4,1.1-2.6,2.6-2.6s2.6,1.1,2.6,2.6c0,1.4-1.1,2.6-2.6,2.6S124.9,20.9,124.9,19.5z M129.4,19.5
		c0-1.1-0.8-2-1.9-2s-1.9,0.9-1.9,2s0.8,2,1.9,2C128.5,21.5,129.4,20.6,129.4,19.5z M126.4,18.2h1.1c0.7,0,1.1,0.4,1.1,0.9
		c0,0.4-0.2,0.7-0.5,0.8l0.5,0.9h-0.7l-0.7-1.2h0.3c0.3,0,0.5-0.1,0.5-0.4s-0.2-0.4-0.5-0.4h-0.4v2h-0.6v-2.6H126.4z"/>
</g>
</svg>
