<svg id="Artwork" xmlns="http://www.w3.org/2000/svg" viewBox="0 0 234.41 60.1"><defs><style>.cls-1{fill:#fff;}</style></defs><title>ssec-logo</title><path class="cls-1" d="M82.32,43a6.6,6.6,0,0,0-5.67-3.52h0l13.63-2.83L76.65,33.79h0a10.86,10.86,0,0,1,6.74-2.53c3-.08,5.59-3.67,3.9-6.51,0,0-.46,4.44-6,2.91a6.52,6.52,0,0,0-6.51,1.53h0L82.4,17.56,70.76,25.14h0a11.22,11.22,0,0,1,3-6.58c2.07-2.14,1.3-6.51-1.84-7.35,0,0,2.76,3.45-2.22,6.35a6.6,6.6,0,0,0-3.52,5.67h0L63.33,9.6,60.5,23.23h0A10.86,10.86,0,0,1,58,16.49c-.08-3-3.67-5.59-6.51-3.9,0,0,4.44.46,3,6A6.44,6.44,0,0,0,56,25.14h0L44.35,17.49h0L50.55,27l1.38,2.14h0a11.22,11.22,0,0,1-6.58-3c-2.14-2.07-6.58-1.3-7.43,1.84,0,0,3.45-2.76,6.35,2.22a6.6,6.6,0,0,0,5.67,3.52h0L36.38,36.63,50,39.46h0A11.1,11.1,0,0,1,43.27,42c-3,.08-5.59,3.67-3.9,6.51,0,0,.46-4.44,6-3A6.36,6.36,0,0,0,51.92,44h0L44.35,55.61,55.91,48a11.22,11.22,0,0,1-3,6.58c-2.07,2.14-1.3,6.58,1.84,7.43,0,0-2.76-3.45,2.22-6.35A6.6,6.6,0,0,0,60.5,50h0l2.83,13.63L66.16,50h0a11.1,11.1,0,0,1,2.53,6.74c.08,3,3.67,5.59,6.51,3.9,0,0-4.44-.46-3-6a6.44,6.44,0,0,0-1.53-6.51h0l11.64,7.66-4.06-6.12-3.6-5.51h0a11.22,11.22,0,0,1,6.58,3c2.14,2.07,6.58,1.3,7.43-1.84C88.67,45.2,85.23,48,82.32,43Z" transform="translate(-36.38 -9.6)"/><path class="cls-1" d="M104.9,43.9c.46,1.45,2.07,4.82,5.28,4.82a3.66,3.66,0,0,0,3.83-4c0-2.6-2-3.67-4-4.59-1-.46-5.13-1.91-5.13-5.59,0-3.06,2.3-5.67,6.28-5.67a8.35,8.35,0,0,1,2.53.38,3.68,3.68,0,0,0,1.15.31c.15,1.07.31,2.3.54,4.13l-.77.08c-.54-1.84-1.38-4-4.13-4a3.19,3.19,0,0,0-3.29,3.37c0,2.3,1.61,3.29,4,4.29,2,.92,5.21,2.14,5.21,6,0,3.52-2.91,6.12-6.81,6.12a10.53,10.53,0,0,1-2.91-.46,17.72,17.72,0,0,1-1.68-.61c-.23-.77-.61-3-.92-4.59Z" transform="translate(-36.38 -9.6)"/><path class="cls-1" d="M121.52,39.46c0-1.84-.08-1.84-2.07-2.14v-.46a39.13,39.13,0,0,0,4.44-1.22v2.3c.61-.38,1.22-.84,2.07-1.38a5.16,5.16,0,0,1,2.76-.92A3.64,3.64,0,0,1,132.16,38c.84-.61,1.84-1.22,2.3-1.53a5,5,0,0,1,2.68-.84c2.45,0,3.83,1.68,3.83,4.06V46.5c0,1.68.15,1.84,1.91,2.07v.69h-6.51v-.69c2-.15,2.14-.31,2.14-2.07V40.68c0-1.76-.61-3.29-2.83-3.29a5.05,5.05,0,0,0-3.37,1.45c0,.31.08.61.08.84v6.89c0,1.68.15,1.84,2,2.07v.69h-6.51v-.69c2-.15,2.14-.31,2.14-2.07v-6c0-1.76-.61-3.22-2.76-3.22a5.55,5.55,0,0,0-3.45,1.45v7.73c0,1.68.15,1.84,2,2.07v.69h-6.66v-.69c2.14-.15,2.3-.31,2.3-2.07V39.46Z" transform="translate(-36.38 -9.6)"/><path class="cls-1" d="M150.23,46.58c0,1.68.15,1.84,2.22,2.07v.69h-6.74v-.69c2-.15,2.14-.31,2.14-2.07v-7c0-1.84-.08-1.84-2.07-2.14v-.54a39.13,39.13,0,0,0,4.44-1.22Zm.46-16.46a1.63,1.63,0,0,1-1.61,1.68,1.69,1.69,0,0,1,0-3.37A1.64,1.64,0,0,1,150.69,30.12Z" transform="translate(-36.38 -9.6)"/><path class="cls-1" d="M159.19,45.28c0,2.37,1.15,2.83,2,2.83A3.73,3.73,0,0,0,163,47.5l.31.69-2.53,1.22a2.31,2.31,0,0,1-.92.23c-2,0-3.06-1.22-3.06-3.67v-8.8h-2.22l-.15-.31.92-.84h1.45V34.1l2-2h.38v4h3.52a.87.87,0,0,1-.23,1.15h-3.37v8Z" transform="translate(-36.38 -9.6)"/><path class="cls-1" d="M169.6,37.77A7,7,0,0,1,174,35.63c2.6-.08,4.21,1.68,4.21,4.44v6.51c0,1.68.15,1.84,2,2v.77h-6.51v-.69c1.91-.15,2.07-.31,2.07-2.07V41c0-2.22-.77-3.67-3.06-3.67a4.59,4.59,0,0,0-3.14,1.38V46.5c0,1.68.15,1.84,2,2.07v.69H165v-.69c1.91-.15,2.07-.31,2.07-2.07V31.19c0-1.84-.08-1.84-2.14-2v-.61c1.45-.31,3.37-.77,4.59-1.07V37.77Z" transform="translate(-36.38 -9.6)"/><path class="cls-1" d="M183.76,45c.46,1.76,1.84,3.75,3.67,3.75a2.13,2.13,0,0,0,2.14-2.3c0-1.22-.69-2.14-2.37-2.91-2-.92-3.67-1.91-3.67-4,0-2.22,1.91-4,4.59-4a6,6,0,0,1,2.6.54,17.42,17.42,0,0,1,.69,2.91l-.77.15c-.92-2-1.91-2.76-3.06-2.76a1.94,1.94,0,0,0-2,2.07c0,1.22,1.3,2.14,2.68,2.68,2.22.92,3.67,2.14,3.67,4.13,0,2.83-2.6,4.21-4.9,4.21a5.61,5.61,0,0,1-3.52-1.15,15.67,15.67,0,0,1-.38-3.37Z" transform="translate(-36.38 -9.6)"/><path class="cls-1" d="M195,43.06a7,7,0,0,1,6.74-7.35,6.56,6.56,0,0,1,6.66,6.81,6.79,6.79,0,0,1-6.66,7.2A6.72,6.72,0,0,1,195,43.06Zm10.64.08c0-3.37-1.45-6.58-4.29-6.58-2.07,0-3.6,2.14-3.6,5.36,0,3.9,1.68,6.89,4.36,6.89C204.05,48.8,205.66,47.27,205.66,43.13Z" transform="translate(-36.38 -9.6)"/><path class="cls-1" d="M216.22,37.93c.61-.46,1.22-.84,2.07-1.38a5.11,5.11,0,0,1,2.6-.92c2.53,0,3.9,1.68,3.9,4.06V46.5c0,1.68.15,1.84,1.91,2.07v.69H220.2v-.69c2-.15,2.14-.31,2.14-2.07V40.68c0-1.76-.61-3.29-2.83-3.29a5.18,5.18,0,0,0-3.37,1.45v7.73c0,1.68.15,1.84,2,2.07v.69h-6.58v-.69c2.14-.15,2.3-.31,2.3-2.07v-7c0-1.84-.08-1.84-2.07-2.14v-.54a39.13,39.13,0,0,0,4.44-1.22v2.3Z" transform="translate(-36.38 -9.6)"/><path class="cls-1" d="M234,46.58c0,1.68.15,1.84,2.22,2.07v.69h-6.74v-.69c2-.15,2.14-.31,2.14-2.07v-7c0-1.84-.08-1.84-2.07-2.14v-.54A39.13,39.13,0,0,0,234,35.63Zm.46-16.46a1.63,1.63,0,0,1-1.61,1.68,1.69,1.69,0,0,1,0-3.37A1.64,1.64,0,0,1,234.44,30.12Z" transform="translate(-36.38 -9.6)"/><path class="cls-1" d="M247.84,49.72a2.27,2.27,0,0,1-1.68-2c-1.3.84-2.91,2-3.6,2a3.64,3.64,0,0,1-3.67-3.52,3.21,3.21,0,0,1,2.3-3.06,38.64,38.64,0,0,0,4.9-2.14V39.92c0-1.91-.92-2.91-2.53-2.91s-2.14,1.3-2.45,2.6a.73.73,0,0,1-.69.61c-.46,0-1.3-.46-1.3-1.07,0-.38.38-.84,1.07-1.3a13.19,13.19,0,0,1,4.75-2.14,4.42,4.42,0,0,1,2.45.77,3.4,3.4,0,0,1,1.15,3v6.89c0,1.15.38,1.68.84,1.68a4.43,4.43,0,0,0,1.3-.38l.31.69Zm-1.68-7.81c-.69.31-2.53,1.07-3.06,1.38a2.5,2.5,0,0,0-1.61,2.3,2.14,2.14,0,0,0,2,2.37,5.19,5.19,0,0,0,2.68-1.22Z" transform="translate(-36.38 -9.6)"/><path class="cls-1" d="M257.64,37.93c.61-.46,1.22-.84,2.07-1.38a5.11,5.11,0,0,1,2.6-.92c2.53,0,3.9,1.68,3.9,4.06V46.5c0,1.68.15,1.84,1.91,2.07v.69h-6.51v-.69c2-.15,2.14-.31,2.14-2.07V40.68c0-1.76-.61-3.29-2.83-3.29a5.18,5.18,0,0,0-3.37,1.45v7.73c0,1.68.15,1.84,2,2.07v.69H253v-.69c2.14-.15,2.3-.31,2.3-2.07v-7c0-1.84-.08-1.84-2.07-2.14v-.54a39.13,39.13,0,0,0,4.44-1.22v2.3Z" transform="translate(-36.38 -9.6)"/><path class="cls-1" d="M104.45,66.33c.15,1,.77,2.76,2.6,2.76a2.19,2.19,0,0,0,2.37-2.3,2.87,2.87,0,0,0-1.76-2.53L107.2,64a3.49,3.49,0,0,1-1.91-2.76,3.29,3.29,0,0,1,3.6-3.22,4.63,4.63,0,0,1,1.68.31c.31.08.46.23.69.23a22.27,22.27,0,0,0-.08,2.3h-.46c-.15-1-.38-2.37-2.14-2.37a1.93,1.93,0,0,0-2.07,2.07c0,1,.61,1.61,1.68,2.3l.46.31a3.41,3.41,0,0,1,2,3,3.63,3.63,0,0,1-3.83,3.52,3.59,3.59,0,0,1-2.91-1c0-.38,0-1.3-.08-2.3Z" transform="translate(-36.38 -9.6)"/><path class="cls-1" d="M117.31,67.86a5.94,5.94,0,0,1-3.37,1.76c-1.07,0-1.76-.84-1.76-2.37A5.88,5.88,0,0,1,114,63a4.6,4.6,0,0,1,2.91-1.22c.61,0,1.15.38,1.15.77a.82.82,0,0,1-.46.69c-.23.15-.46.23-.61,0a1.69,1.69,0,0,0-1.22-.69c-.46,0-.92.38-1.3,1a6.17,6.17,0,0,0-.84,3.29c0,1,.31,1.76,1.22,1.76a3.86,3.86,0,0,0,2.3-1.15Z" transform="translate(-36.38 -9.6)"/><path class="cls-1" d="M122.13,67.79a8.84,8.84,0,0,1-2.68,1.84c-.31,0-.54-.23-.31-1l1.15-4.75c.15-.61.15-.77,0-.77a5.11,5.11,0,0,0-1.45.84l-.15-.31a7,7,0,0,1,2.91-1.76c.46,0,.31.61.15,1.22l-1.15,4.67c-.08.38-.15.61,0,.61a5.06,5.06,0,0,0,1.38-.92Zm-1.38-9a1,1,0,0,1,.92-1.07.68.68,0,0,1,.69.69,1,1,0,0,1-.92,1A.63.63,0,0,1,120.75,58.83Z" transform="translate(-36.38 -9.6)"/><path class="cls-1" d="M128.71,67.71c-1.76,1.76-3.14,1.91-3.75,1.91s-1.76-.46-1.76-2.53a5.56,5.56,0,0,1,2-4.29,4.54,4.54,0,0,1,2.53-1.07,1.38,1.38,0,0,1,1.45,1.3c0,1.53-2.91,2.68-4.52,3.14,0,.08-.08.31-.08.38,0,.92.15,2.07,1.3,2.07a4.06,4.06,0,0,0,2.6-1.3Zm-.92-4.36a.8.8,0,0,0-.84-.84,1.44,1.44,0,0,0-.61.15,4.06,4.06,0,0,0-1.68,3.06C127.11,65,127.8,64.26,127.8,63.35Z" transform="translate(-36.38 -9.6)"/><path class="cls-1" d="M130.25,69.62c.23-.92.38-1.68.61-2.83l.61-2.83c.15-.61.23-1,.08-1a4.94,4.94,0,0,0-1.3.84l-.15-.31a5.93,5.93,0,0,1,2.53-1.76c.46,0,.38.61.15,1.53l-.38,1.61h.08A12.89,12.89,0,0,1,135.91,62a2,2,0,0,1,.77-.23c.31,0,.84.15.38,1.91-.31,1.22-.61,2.6-1,4.06-.15.54-.15.69,0,.69a5.24,5.24,0,0,0,1.3-.77l.15.31A7.45,7.45,0,0,1,135,69.55c-.46,0-.54-.38-.31-1.3l1-4.13c.15-.77.31-1.3-.15-1.3-.92,0-2.91,2.22-3.45,3.14a25.73,25.73,0,0,0-.69,3.14Z" transform="translate(-36.38 -9.6)"/><path class="cls-1" d="M144,67.86a5.94,5.94,0,0,1-3.37,1.76c-1.07,0-1.76-.84-1.76-2.37A5.88,5.88,0,0,1,140.66,63a4.6,4.6,0,0,1,2.91-1.22c.61,0,1.15.38,1.15.77a.82.82,0,0,1-.46.69c-.23.15-.46.23-.61,0a1.69,1.69,0,0,0-1.22-.69c-.46,0-.92.38-1.3,1a6.17,6.17,0,0,0-.84,3.29c0,1,.31,1.76,1.22,1.76a3.86,3.86,0,0,0,2.3-1.15Z" transform="translate(-36.38 -9.6)"/><path class="cls-1" d="M150.53,67.71c-1.76,1.76-3.14,1.91-3.75,1.91S145,69.16,145,67.1a5.56,5.56,0,0,1,2-4.29,4.54,4.54,0,0,1,2.53-1.07A1.38,1.38,0,0,1,151,63c0,1.53-2.91,2.68-4.52,3.14,0,.08-.08.31-.08.38,0,.92.15,2.07,1.3,2.07a4.06,4.06,0,0,0,2.6-1.3Zm-.92-4.36a.8.8,0,0,0-.84-.84,1.44,1.44,0,0,0-.61.15,4.06,4.06,0,0,0-1.68,3.06C148.93,65,149.62,64.26,149.62,63.35Z" transform="translate(-36.38 -9.6)"/><path class="cls-1" d="M160.64,63.35c1.45,0,1.53-.08,2-1.38h.46l-.61,3.37H162c.08-.61.08-1-.15-1.15s-.54-.23-1.3-.23H158.8l-.61,3.22c-.31,1.68.15,1.68,1.61,1.68s2.07-.08,2.53-.54a7.63,7.63,0,0,0,1.15-1.68l.46.08c-.23.54-.77,2.14-1.07,2.68H155l.08-.38c1.38-.08,1.53-.23,1.91-2.07l1.15-6.12c.38-1.84.23-2-1.15-2.07v-.46h7.35c-.08.31-.15,1.53-.31,2.53l-.46.08a3.7,3.7,0,0,0-.23-1.61c-.23-.31-.77-.38-1.84-.38h-1.07c-.61,0-.69,0-.77.54l-.77,3.83h1.76Z" transform="translate(-36.38 -9.6)"/><path class="cls-1" d="M170,58c1.3-.31,2.6-.69,2.68-.69.23,0,.15.31.08.69-.69,3.22-1.3,6.51-1.91,9.72-.08.54-.15.69,0,.69a5.24,5.24,0,0,0,1.3-.77l.15.31a7.45,7.45,0,0,1-2.53,1.61c-.23,0-.54-.15-.31-1.38l.38-2h-.08a9.5,9.5,0,0,1-2.37,2.53,4.32,4.32,0,0,1-1.53.84c-.46,0-1.07-.46-1.07-1.91a6.26,6.26,0,0,1,2-4.59,5.62,5.62,0,0,1,3.06-1.38,4.78,4.78,0,0,1,.92.08l.54-2.76c.15-.77.15-.84-.46-.84H170Zm-1.53,9.34a16.68,16.68,0,0,0,1.3-1.61,10.54,10.54,0,0,0,.92-3,3.05,3.05,0,0,0-1.3-.23,2,2,0,0,0-1.07.23,3.9,3.9,0,0,0-1.3,1.53,7,7,0,0,0-.77,3.14c0,.69.15,1.15.54,1.15S167.76,68.09,168.45,67.33Z" transform="translate(-36.38 -9.6)"/><path class="cls-1" d="M180.85,61.81H181l-1.3,5.9c-.15.54-.15.69,0,.69a5.24,5.24,0,0,0,1.3-.77l.23.31a7.45,7.45,0,0,1-2.53,1.61c-.38,0-.46-.46-.31-1.3l.46-2.22h-.08A11.39,11.39,0,0,1,176,68.93a2.75,2.75,0,0,1-1.38.61c-.23,0-.84-.23-.46-2.07l.77-3.6c.15-.61.23-1,.08-1a4.94,4.94,0,0,0-1.3.84l-.15-.31A5.93,5.93,0,0,1,176,61.66c.46,0,.46.46.31,1.07l-.92,4.06c-.23,1-.31,1.61.15,1.61.92,0,3.06-2.83,3.45-3.67a16.54,16.54,0,0,0,.61-2.6Z" transform="translate(-36.38 -9.6)"/><path class="cls-1" d="M187.44,67.86a5.94,5.94,0,0,1-3.37,1.76c-1.07,0-1.76-.84-1.76-2.37A5.88,5.88,0,0,1,184.14,63a4.6,4.6,0,0,1,2.91-1.22c.61,0,1.15.38,1.15.77a.82.82,0,0,1-.46.69c-.23.15-.46.23-.61,0a1.69,1.69,0,0,0-1.22-.69c-.46,0-.92.38-1.3,1a6.17,6.17,0,0,0-.84,3.29c0,1,.31,1.76,1.22,1.76a3.86,3.86,0,0,0,2.3-1.15Z" transform="translate(-36.38 -9.6)"/><path class="cls-1" d="M193.18,66.41h0a17.37,17.37,0,0,1-2.37,2.37,4.46,4.46,0,0,1-1.45.77c-.38,0-1-.31-1-1.84a6.34,6.34,0,0,1,1.91-4.59,5.8,5.8,0,0,1,3.37-1.45,4.58,4.58,0,0,1,.92.15,2.12,2.12,0,0,0,.69.08v.23c-.38,1.76-.77,3.67-1.15,5.59-.08.54-.15.77,0,.77a6.62,6.62,0,0,0,1.3-.84l.15.31A7.45,7.45,0,0,1,193,69.55c-.23,0-.54-.15-.38-1Zm-1.3-3.67a3.5,3.5,0,0,0-1.53,1.84,7.56,7.56,0,0,0-.61,2.83c0,.69.15,1.15.46,1.15a4.07,4.07,0,0,0,1.61-1.22,9,9,0,0,0,1.3-1.68,15.34,15.34,0,0,0,.69-2.83,4.15,4.15,0,0,0-1.15-.15A.7.7,0,0,0,191.88,62.73Z" transform="translate(-36.38 -9.6)"/><path class="cls-1" d="M200.45,67.56c-.54.77-2.07,2.07-2.91,2.07-.31,0-.61-.61-.31-1.91l1.07-4.9h-1.38l-.15-.23.46-.38h1.15l.31-1.3,1.3-1,.15.08-.54,2.22h2.22l-.46.54-1.84.08-1,4.52c-.15.77-.08,1.15.08,1.15.38,0,1.22-.77,1.61-1.15Z" transform="translate(-36.38 -9.6)"/><path class="cls-1" d="M205.35,67.79a8.84,8.84,0,0,1-2.68,1.84c-.31,0-.54-.23-.31-1l1.15-4.75c.15-.61.15-.77,0-.77a5.11,5.11,0,0,0-1.45.84l-.15-.31a7,7,0,0,1,2.91-1.76c.46,0,.31.61.15,1.22l-1.15,4.67c-.08.38-.15.61,0,.61a5.06,5.06,0,0,0,1.38-.92Zm-1.38-9a1,1,0,0,1,.92-1.07.68.68,0,0,1,.69.69,1,1,0,0,1-.92,1A.63.63,0,0,1,204,58.83Z" transform="translate(-36.38 -9.6)"/><path class="cls-1" d="M213,64.19a6.21,6.21,0,0,1-1.76,4.29,4.46,4.46,0,0,1-2.53,1.15c-1.61,0-2.14-1.3-2.14-2.53A5.41,5.41,0,0,1,209,62.43a4.29,4.29,0,0,1,1.84-.61A2.08,2.08,0,0,1,213,64.19ZM209.18,69a1.42,1.42,0,0,0,.54-.15c.69-.23,1.91-2.22,1.84-4.52,0-1.3-.46-2-1.38-2a1.42,1.42,0,0,0-.54.15c-.54.23-1.84,1.61-1.84,4.13C207.88,68,208.26,69,209.18,69Z" transform="translate(-36.38 -9.6)"/><path class="cls-1" d="M214.46,69.62c.23-.92.38-1.68.61-2.83l.61-2.83c.15-.61.23-1,.08-1a4.94,4.94,0,0,0-1.3.84l-.15-.31a5.93,5.93,0,0,1,2.53-1.76c.46,0,.38.61.15,1.53l-.38,1.61h.08A12.89,12.89,0,0,1,220.13,62a2,2,0,0,1,.77-.23c.31,0,.84.15.38,1.91-.31,1.22-.61,2.6-.92,4.06-.15.54-.15.69,0,.69a5.24,5.24,0,0,0,1.3-.77l.15.31a7.45,7.45,0,0,1-2.53,1.61c-.46,0-.54-.38-.31-1.3l1-4.13c.15-.77.31-1.3-.15-1.3-.92,0-2.91,2.22-3.45,3.14a25.73,25.73,0,0,0-.69,3.14Z" transform="translate(-36.38 -9.6)"/><path class="cls-1" d="M237.12,61.13c-.08-2-1-2.53-2.76-2.53-3.22,0-5.36,3-5.36,6,0,2.53,1,4.44,3.52,4.44,1.76,0,2.76-1,3.9-2.68l.46.08c-.38.77-.92,2.07-1.38,2.76a10.66,10.66,0,0,1-3.06.46c-2.83,0-5-1.61-5-4.82,0-4.13,3.45-6.81,7.43-6.81a9.38,9.38,0,0,1,2.91.46c-.08.92-.08,1.68-.15,2.6Z" transform="translate(-36.38 -9.6)"/><path class="cls-1" d="M243.25,67.71c-1.76,1.76-3.14,1.91-3.75,1.91s-1.76-.46-1.76-2.53a5.56,5.56,0,0,1,2-4.29,4.54,4.54,0,0,1,2.53-1.07,1.38,1.38,0,0,1,1.45,1.3c0,1.53-2.91,2.68-4.52,3.14,0,.08-.08.31-.08.38,0,.92.15,2.07,1.3,2.07a4.06,4.06,0,0,0,2.6-1.3Zm-.92-4.36a.8.8,0,0,0-.84-.84,1.44,1.44,0,0,0-.61.15,4.06,4.06,0,0,0-1.68,3.06C241.64,65,242.33,64.26,242.33,63.35Z" transform="translate(-36.38 -9.6)"/><path class="cls-1" d="M244.78,69.62c.23-.92.38-1.68.61-2.83L246,64c.15-.61.23-1,.08-1a4.94,4.94,0,0,0-1.3.84l-.15-.31a5.93,5.93,0,0,1,2.53-1.76c.46,0,.38.61.15,1.53l-.38,1.61H247A12.89,12.89,0,0,1,250.45,62a2,2,0,0,1,.77-.23c.31,0,.84.15.38,1.91-.31,1.22-.61,2.6-1,4.06-.15.54-.15.69,0,.69a5.24,5.24,0,0,0,1.3-.77l.15.31a7.45,7.45,0,0,1-2.53,1.61c-.46,0-.54-.38-.31-1.3l1-4.13c.15-.77.31-1.3-.15-1.3-.92,0-2.91,2.22-3.45,3.14a25.73,25.73,0,0,0-.69,3.14Z" transform="translate(-36.38 -9.6)"/><path class="cls-1" d="M257.34,67.56c-.54.77-2.07,2.07-2.91,2.07-.31,0-.61-.61-.31-1.91l1.07-4.9h-1.38l-.15-.23.46-.38h1.15l.31-1.3,1.3-1L257,60l-.54,2.22h2.22l-.46.54-1.84.08-1,4.52c-.15.77-.08,1.15.08,1.15.38,0,1.22-.77,1.61-1.15Z" transform="translate(-36.38 -9.6)"/><path class="cls-1" d="M263.92,67.71c-1.76,1.76-3.14,1.91-3.75,1.91s-1.76-.46-1.76-2.53a5.56,5.56,0,0,1,2-4.29,4.54,4.54,0,0,1,2.53-1.07,1.38,1.38,0,0,1,1.45,1.3c0,1.53-2.91,2.68-4.52,3.14,0,.08-.08.31-.08.38,0,.92.15,2.07,1.3,2.07a4.06,4.06,0,0,0,2.6-1.3Zm-.84-4.36a.8.8,0,0,0-.84-.84,1.44,1.44,0,0,0-.61.15,4.06,4.06,0,0,0-1.68,3.06C262.31,65,263.08,64.26,263.08,63.35Z" transform="translate(-36.38 -9.6)"/><path class="cls-1" d="M267.83,63.35l-.23,1.07h0c.84-1.53,1.91-2.6,2.37-2.6a.71.71,0,0,1,.77.46.84.84,0,0,1,0,.61,1,1,0,0,1-.46.54c-.15.08-.31.15-.46,0a.83.83,0,0,0-.54-.23c-.15,0-.46.08-.92.69a7.23,7.23,0,0,0-1,1.84q-.57,2.53-.69,3.45l-1.38.46c.23-.92.38-1.76.61-2.68l.54-2.68c.15-.92.23-1.22.08-1.22a4,4,0,0,0-1.3.84l-.15-.31a5.84,5.84,0,0,1,2.45-1.76C268.06,61.81,268.06,62.43,267.83,63.35Z" transform="translate(-36.38 -9.6)"/></svg>