<svg id="Layer_1" data-name="Layer 1" xmlns="http://www.w3.org/2000/svg" width="324.21" height="299.48" viewBox="0 0 324.21 299.48"><defs><style>.cls-1{fill:#ddd;}.cls-2{fill:#f48211;}.cls-3{font-size:57.53px;fill:#fff;font-family:AvenirNext-Heavy, Avenir Next;}.cls-4{font-size:24.13px;fill:#3f3f3f;font-family:AvenirNext-Bold, Avenir Next;font-weight:700;}.cls-5{letter-spacing:-0.01em;}</style></defs><title>dc-cert</title><rect class="cls-1" x="5.39" y="97.47" width="210.72" height="102.53" transform="translate(137.61 -34.75) rotate(45)"/><path class="cls-2" d="M66.29,249.77c2,2.25,4.19,4.4,6.05,6.79a8,8,0,0,1,2,4.33c0,11-.23,22-.38,33,0,2.38,0,4.77,0,5.6L189.08,187.67,70.82,70.3c.22-.1-.42,0-.79.38-21.79,22-43.59,44-65.2,66.15-1.28,1.32-1.92,4.85-1.08,6.36,3.25,5.84,7.88,11,10.78,17,4.74,9.77,11.84,16.24,22.66,16.62,8.67.3,11.47,5,13.55,12.14,1.3,4.43,3.84,8.53,6.13,12.6a92.61,92.61,0,0,0,5.82,8.44,38.33,38.33,0,0,0,3.44,3.24l1.74-4.92,2.45-.45c3,9.51,7.4,18.84,8.73,28.58C80.56,247.28,77.33,249.56,66.29,249.77Z"/><path class="cls-2" d="M66.29,249.77c11-.21,14.26-2.49,12.78-13.38-1.33-9.74-5.7-19.07-8.73-28.58l-2.45.45-1.74,4.92a38.33,38.33,0,0,1-3.44-3.24,92.61,92.61,0,0,1-5.82-8.44c-2.29-4.07-4.83-8.18-6.13-12.6-2.08-7.11-4.88-11.84-13.55-12.14-10.82-.38-17.92-6.85-22.66-16.62-2.9-6-7.53-11.11-10.78-17-.84-1.51-.21-5,1.08-6.36C26.44,114.65,48.25,92.68,70,70.68c.37-.37,1-.48.79-.38L189.08,187.67,73.94,299.48c0-.83,0-3.22,0-5.6.15-11,.39-22,.38-33a8,8,0,0,0-2-4.33C70.49,254.18,68.33,252,66.29,249.77Z"/><text class="cls-3" transform="translate(56.89 190.62) rotate(1.53)">DC</text><text class="cls-4" transform="translate(171.47 118.13) rotate(-45.02)">CE<tspan class="cls-5" x="31.44" y="0">R</tspan><tspan x="47.15" y="0">TIFIED </tspan><tspan x="0" y="28.96">BUSINESS</tspan><tspan x="0" y="57.91">ENTERPRISE</tspan></text></svg>