<svg xmlns="http://www.w3.org/2000/svg" viewBox="0 0 422.77 89.54"><defs><style>.cls-1{fill:#fff;}</style></defs><title>gu-logo</title><g id="Layer_2" data-name="Layer 2"><g id="Layer_1-2" data-name="Layer 1"><path class="cls-1" d="M27.38,42.9a40.61,40.61,0,0,1-2.21,6.62c-1.44,2.93-5.41,6.63-9.61,6.63-5.13,0-7.12-2.54-7.12-5.19,0-1.93,1-3.42,3-3.42a2.25,2.25,0,0,1,2.37,2.32,3.45,3.45,0,0,1-.5,1.88,1.22,1.22,0,0,0-.33.94c0,1.1,1.27,1.71,2.43,1.71,2.87,0,4.42-2.32,5.41-6.13.66-2.6,1.66-7,3.7-14.58l-.33-.11c-.77,1-3.92,5.52-11.37,5.52C5.19,39.08,0,33.73,0,24.18A24.73,24.73,0,0,1,7.34,6.9,21,21,0,0,1,22.91.44c5.74,0,8.67,1.88,9.77,2.76a2.58,2.58,0,0,0,1.49.66c.66,0,1-.55,1.33-1.77.05-.28.22-.33.5-.28l.83.22c.22.06.39.17.33.44L34,13.58c-.11.33-.22.39-.61.33l-.88-.11a.43.43,0,0,1-.39-.55c.94-4.75-1.77-10.54-8.94-10.54-3.53,0-7.51,1.21-11.37,6.29-3.2,4-5,10-5,16.67,0,9.05,5.58,10.49,8,10.49a10.13,10.13,0,0,0,10-8.95c.16-2.1-.44-2.54-1.93-2.54H21c-.44,0-.49-.17-.38-.55l.22-1.21c.06-.33.17-.44.61-.44.83,0,2.76.17,7.62.17,3.75,0,5.08-.17,5.85-.17.39,0,.55.17.5.44l-.17,1.32c-.05.33-.17.44-.5.44H33.57c-1,0-1.82.44-2.54,3.37Z"/><path class="cls-1" d="M70.55,28.76c.11.11.22.22.11.61l-2.87,8.06c-.22.88-.55,1-1.21,1l-5.85-.11c-3.15-.05-7.12-.05-10.93-.05H42.61c-1.71,0-3.31.05-4.58.05s-2.1.11-2.43.11-.38-.11-.33-.44l.22-1.44a.37.37,0,0,1,.39-.33h1.77a3.65,3.65,0,0,0,3.86-2.93L50,7.07c.94-3-1-3.75-2.7-3.75H45.48c-.28,0-.44-.22-.33-.55l.33-1.21c.11-.33.22-.44.66-.44s1.66.05,3.2.05,3.42.11,4.75.11h4c4,0,7,0,9.22-.05s3.53-.11,4.14-.11c.88,0,1,.22,1.21,1.1l1.66,7.4c.11.39.11.39-.22.61l-.66.33c-.22.11-.33,0-.66-.33L67.12,3.7a1.35,1.35,0,0,0-1-.44H57.52l-4.64,14.3h4.75c2.37,0,4.53-.28,6.52-4.59.11-.22.22-.33.44-.33l1,.33c.22,0,.33.22.22.33a67.7,67.7,0,0,0-2.87,11c-.11.33-.22.33-.44.33h-1c-.33-.11-.33-.22-.33-.55,0-4-2.1-4.58-6.07-4.58H52.33L46.92,36.27H59.28a7.21,7.21,0,0,0,4.86-2.1c1.21-1,4.19-4.75,5.08-5.74.11-.22.33-.33.66-.11Z"/><path class="cls-1" d="M112.66,16.56c0,11-7.84,22.52-20.32,22.52a14,14,0,0,1-9.94-3.64c-3.42-3.31-4.86-7.73-4.86-12.7,0-11.48,8.39-22.3,20.1-22.3,8.83,0,15,6,15,16.12M91,7.18c-4.53,5.08-7.84,13.25-7.84,19.32,0,6.85,3.64,10,8.17,10,8.06,0,15.24-12.36,15.35-24.29,0-5.52-2.76-9.16-7.73-9.16a10.49,10.49,0,0,0-8,4.08"/><path class="cls-1" d="M123.75,32.24c-.94,3-.33,4,1.22,4h2.32c.33,0,.44.22.33.44L127.51,38a.6.6,0,0,1-.66.44c-.66,0-3.09-.17-7.84-.17-3.86,0-6,.17-6.62.17-.33,0-.44-.22-.33-.55l.22-1.21c0-.33.11-.44.55-.44h1.43c1.33,0,2.32-1.22,2.76-2.6l8.83-27.55c.55-1.76.22-2.76-1.66-2.76h-1.88c-.44,0-.55-.11-.44-.44l.22-1.16c.11-.33.22-.44.77-.44,5.74,0,11.48-.16,13-.16,4.75,0,13,.39,13,8,0,5.41-5.85,9.83-13,10.6v.22c1.77.44,2.65,2.1,3.2,3.2.33.55,4.08,8.39,5,9.88,1.49,2.32,2.82,3.2,4.8,3.2h1.44c.33,0,.44.22.33.55l-.11,1.1c-.11.33-.22.55-.55.55-.55,0-1.43-.17-4.42-.17-3.2,0-4.2.17-5.08.17-.55,0-.77-.55-1.55-1.82s-5.63-12.14-6.29-13.47c-1.32-3-3.75-2.71-5.24-2.71Zm4.31-13.75a20.27,20.27,0,0,0,8.83-1.33,9,9,0,0,0,5.41-8.28c0-2.32-1.66-5.91-7.07-5.91a14.24,14.24,0,0,0-2.32.11Z"/><path class="cls-1" d="M177.41,27.66c.44-2.21-.44-2.65-2-2.65H173.6c-.44,0-.55-.28-.5-.61l.22-1.16c.05-.33.22-.44.55-.44.88,0,2.76.17,7.29.17s5.74-.17,6.52-.17c.33,0,.5.22.44.66l-.11,1.1c-.06.33-.22.44-.55.44h-.88a2.34,2.34,0,0,0-2.65,1.88L182,35.33c-.17.66-.44.88-1.1,1.21a30.43,30.43,0,0,1-11,2.54c-10.27,0-16.45-7-16.45-15A23.49,23.49,0,0,1,176.63.44a14.61,14.61,0,0,1,8.94,2.76,2.3,2.3,0,0,0,1.33.66c.66,0,1-.55,1.54-1.77,0-.22.22-.33.55-.22l.77.22c.22,0,.33.11.33.44l-3.2,11c-.11.33-.22.44-.55.33h-1.1c-.33,0-.44-.22-.33-.67.66-4.75-1.65-10.54-8.72-10.54-8.5,0-15.79,10.22-15.79,22,0,8.5,5.08,12,9.27,12a10,10,0,0,0,5.41-1.27,3.15,3.15,0,0,0,1.1-2Z"/><path class="cls-1" d="M222.95,28.76c.11.11.22.22.11.61l-2.87,8.06c-.22.88-.55,1-1.22,1l-5.85-.11c-3.15-.05-7.12-.05-10.93-.05H195c-1.71,0-3.31.05-4.58.05s-2.1.11-2.43.11-.38-.11-.33-.44l.22-1.44a.37.37,0,0,1,.39-.33H190a3.65,3.65,0,0,0,3.86-2.93l8.45-26.22c.94-3-1.05-3.75-2.71-3.75h-1.77c-.28,0-.44-.22-.33-.55l.33-1.21c.11-.33.22-.44.66-.44s1.65.05,3.2.05,3.42.11,4.75.11h4c4,0,7,0,9.22-.05s3.53-.11,4.14-.11c.89,0,1,.22,1.21,1.1l1.66,7.4c.11.39.11.39-.22.61l-.66.33c-.22.11-.33,0-.66-.33L219.52,3.7a1.35,1.35,0,0,0-1-.44h-8.61l-4.63,14.3H210c2.37,0,4.52-.28,6.51-4.59.11-.22.22-.33.44-.33l1,.33c.22,0,.33.22.22.33a67.81,67.81,0,0,0-2.87,11c-.11.33-.22.33-.44.33h-1c-.33-.11-.33-.22-.33-.55,0-4-2.1-4.58-6.07-4.58h-2.76l-5.41,16.73h12.37a7.21,7.21,0,0,0,4.86-2.1c1.21-1,4.2-4.75,5.08-5.74.11-.22.33-.33.66-.11Z"/><path class="cls-1" d="M258,1.27c5,0,7-.44,8-1,.22-.11.33-.22.55-.22a.41.41,0,0,1,.45.44c-.11.88-.66,8.94-.55,11.15,0,.33-.11.44-.44.5l-.89.17c-.33,0-.55-.22-.77-.88a39.12,39.12,0,0,0-2.21-6.63c-1.22-.94-5.19-1.43-7.73-1.43h-1.1l-8.73,28.15c-1.1,3.48-.55,4.69,2.32,4.69h2.21c.28,0,.39.22.33.55l-.22,1.1a.58.58,0,0,1-.66.55c-.77,0-3-.17-8.17-.17-5.41,0-8.33.17-8.89.17-.39,0-.55-.22-.5-.55l.11-1.21c.05-.33.22-.44.66-.44h1.43c3.09,0,4.14-1.44,5.41-5.58l8.5-27.27h-1.43c-5.08,0-7.51.27-8.78,1.21a49.41,49.41,0,0,0-6.13,6.18.82.82,0,0,1-.66.22l-.88-.55c-.22-.11-.22-.33-.11-.55.66-1.22,4.08-8.94,4.19-9.27s.22-.55.55-.55.45.11.88.44c1.1.33,3.75.77,9.5.77Z"/><path class="cls-1" d="M302.16,16.56c0,11-7.84,22.52-20.32,22.52a14,14,0,0,1-9.94-3.64c-3.42-3.31-4.86-7.73-4.86-12.7,0-11.48,8.39-22.3,20.1-22.3,8.83,0,15,6,15,16.12M280.51,7.18c-4.53,5.08-7.84,13.25-7.84,19.32,0,6.85,3.64,10,8.17,10,8.06,0,15.24-12.36,15.35-24.29,0-5.52-2.76-9.16-7.73-9.16a10.49,10.49,0,0,0-8,4.08"/><path class="cls-1" d="M313.8,28.65c-.11.66.33.88.88.22.33-.33,12.59-18,12.81-18.33a11.32,11.32,0,0,0,2-5.35c0-1.11-.44-1.88-1.44-1.88h-.77c-.33,0-.44-.11-.44-.39L327,1.44c.11-.22.22-.33.66-.33s2,.16,5.41.16c3.2,0,4.63-.16,5.3-.16.45,0,.55.11.5.44l-.16,1.32c-.11.33-.22.44-.66.44h-.88c-1,0-1.55.66-1.77,2.59l-2.76,23c-.11,1,.22,1.1.77.44,1.11-1.21,6.52-10.16,7.62-12a79.86,79.86,0,0,0,5.58-11.1c.5-1.44.39-2.87-1.27-2.87h-.88c-.33,0-.55-.11-.44-.5l.22-1.16c0-.44.22-.55.55-.55.77,0,2.1.16,5,.16,3.31,0,4.75-.16,5.52-.16.45,0,.61.11.56.39l-.22,1.38c-.11.33-.22.44-.44.44h-1a3.4,3.4,0,0,0-2.87,1.49c-.55.78-8.83,14.46-10.16,16.67C339.63,24,332.4,34.67,330,37.6c-.71.88-1.38,1.76-2.26,1.76s-1.1-.77-1-2l1.6-23.19c.11-.66-.33-.66-.77-.11-.56.77-15.46,21.47-17.5,23.85-.66.78-1.21,1.44-2.1,1.44-.72,0-1-.77-.77-2.32l3.92-30.86c.22-1.88,0-2.87-1.22-2.87h-1.32c-.44,0-.55-.11-.5-.5l.17-1.27c.11-.33.22-.44.66-.44s2.76.16,6.4.16c3.42,0,5.52-.16,6.18-.16s.66.11.55.49l-.22,1.27c0,.22-.11.44-.55.44h-.88c-1.77,0-2.54.66-2.93,2.92Z"/><path class="cls-1" d="M344.54,32.74c0-3,1.93-4.53,3.43-4.53a2.47,2.47,0,0,1,2.7,2.65c0,1.6-1.54,2.37-1.83,3.59-.22,1,.61,2.26,3.7,2.26,5.3,0,9.77-4.19,12.2-7.51,3.92-5.46,8.28-17.5,8.28-23,0-1.27-.66-1.65-1.88-1.65-3.37,0-6.52-.05-9.66.94-2.26.66-4.42,2.15-4.42,3.48a2.32,2.32,0,0,0,1.54,2.21c1.71.27,2.49,1.27,2.49,2.48a2.54,2.54,0,0,1-2.76,2.38c-1.93,0-3.59-2.1-3.59-4.75a9.44,9.44,0,0,1,3.81-7.68c4-2.81,9.49-2.37,19.43-2.37a1.38,1.38,0,0,1,1.6,1.27c1.88,8.45,7,22.58,10,27.38.38.66.66.17.88-.88,2.43-10.93,6-21.59,12.09-26.28A12.06,12.06,0,0,1,410.3,0c3.31,0,4.86,1.93,4.86,3.75a2.79,2.79,0,0,1-2.7,2.76A3.09,3.09,0,0,1,410,5a2.39,2.39,0,0,0-2-1.27,6.24,6.24,0,0,0-3.92,1.49C400.3,8,396,13.8,392.46,29.65c-.89,4,.06,5.19.61,6.13,2.81,4.8,10.88,15,20.48,15,2.82,0,4.81-1.21,5.25-3,.55-2.43,1.27-3.53,2.38-3.53a1.66,1.66,0,0,1,1.6,1.87,6.42,6.42,0,0,1-1.66,3.42c-.94,1.05-3.86,4.14-10.21,4.14-11.21,0-18.44-8.89-21.7-13.2C383,32.24,377.95,20,375.24,9.11c-.11-.5-.44-.55-.61.33-1.27,7-3.65,14.19-6.46,19-2.87,5.08-7.84,11.26-15.89,11.26-3.92,0-7.73-2.43-7.73-7"/><path class="cls-1" d="M71.37,73c-3,9.77-7.4,16.29-17.56,16.29-7.18,0-12.48-3.31-12.48-10.1a32.61,32.61,0,0,1,1.11-7l4.75-15.29c.77-2.54,0-3.42-1.55-3.42h-2c-.22,0-.44-.11-.33-.44l.22-1.32c.11-.33.22-.44.77-.44s2.54.16,7.62.16c4.42,0,6.29-.16,6.85-.16s.55.22.55.66L59.12,53a.54.54,0,0,1-.55.44H57c-1.1,0-2.49.22-3.31,2.92l-4.53,14.8c-.33,1.22-1.65,5.3-1.65,7.67,0,6.74,5.85,7.4,7.51,7.4a11.48,11.48,0,0,0,7.18-2.43c2.54-2.21,4.42-5.19,6.18-11.21l4-14.13c1.05-3.7.44-5-1.32-5H69.28c-.44,0-.55-.22-.5-.44l.17-1.21c.11-.33.22-.55.77-.55s2.76.16,6.29.16c3.2,0,4.41-.16,5-.16s.66.22.55.66L81.31,53c0,.22-.11.44-.55.44h-.88c-1.77,0-2.87,1.6-3.75,4.36Z"/><path class="cls-1" d="M90.8,59c-.33-.55-.77-.55-.88.11L84.4,77.5c-1.88,6.29-1.65,8.89.66,8.89h2.1c.44,0,.55.22.55.55l-.22,1.16c-.11.39-.11.5-.66.5s-2.87-.16-6.62-.16-5.63.16-6.29.16c-.33,0-.44-.22-.39-.61l.16-1.16c.11-.22.22-.44.55-.44h1.21c2.54,0,3.86-1.88,5.52-6.79l6.74-21.31c1-3.26-.11-4.8-2.43-4.8h-2.1c-.44,0-.55-.22-.44-.66l.22-1c.11-.33.22-.55.66-.55.66,0,2.87.16,9.39.16,1,0,1.33.66,1.66,1.44l12.26,25.51c.44.66.66.55,1.1-.77l5.85-17.89c1.43-4.47,1-6.24-.88-6.24h-1.66c-.55,0-.66-.11-.55-.55l.11-1.21c.11-.22.22-.44.55-.44.66,0,2.43.16,6.29.16,2.87,0,4-.16,4.75-.16.55,0,.66.33.55.77l-.22,1c0,.33-.11.44-.44.44h-1.43c-1.33,0-2.43,1.33-3.53,4.47L107.25,87a2.28,2.28,0,0,1-1.1,1.44,1.59,1.59,0,0,1-1.43-1.11Z"/><path class="cls-1" d="M129.6,57.13c.77-2.76-.11-3.64-1.55-3.64h-2.54c-.44,0-.55-.11-.55-.44l.33-1.44c0-.22.22-.33.66-.33.66,0,3.64.16,8.06.16,4.75,0,7.07-.16,7.84-.16.55,0,.77.22.66.66l-.33,1.1c0,.22-.11.44-.55.44H140.2c-2.32,0-3.59.55-4.42,3.7l-6.84,25.45c-.72,2.65.11,3.75,2.43,3.75h2c.33,0,.44.22.33.55l-.11,1.1c-.11.44-.11.55-.66.55s-3.2-.17-8.83-.17c-4.64,0-7.51.17-8.17.17-.33,0-.44-.22-.44-.55l.33-1.21c0-.33.11-.44.44-.44h2.1c3.2,0,3.53-1.1,4.3-3.92Z"/><path class="cls-1" d="M166.92,58.07c2-2.65,2.21-4.58.66-4.58h-1.11c-.55,0-.66-.22-.61-.55l.28-1.22c0-.33.11-.44.66-.44.77,0,2.65.16,5.63.16,3.2,0,4.64-.16,5.3-.16s.66.22.61.5l-.16,1.16c-.11.33-.22.55-.55.55h-1.21c-1.88,0-4.69,2.76-6.85,5.46L146,88.55a2.38,2.38,0,0,1-1.77,1c-.88,0-1-.77-.77-2.1l4.36-31c.22-1.65-.33-3-2.1-3H144c-.44,0-.66-.11-.55-.5l.33-1.16c.11-.44.11-.55.55-.55.77,0,3.09.16,7.84.16,4,0,6.29-.16,7-.16s.66.11.55.5L159.47,53c-.06.33-.17.44-.61.44h-1.55c-1.77,0-2.76.66-3,2.26l-3.81,22.08c-.22,1.44.44,1.55,1.21.55Z"/><path class="cls-1" d="M204.4,78.94c.11.11.22.22.11.61l-2.87,8.06c-.22.88-.55,1-1.22,1l-5.85-.11c-3.15-.05-7.12-.05-10.93-.05h-7.18c-1.71,0-3.31.05-4.58.05s-2.1.11-2.43.11-.38-.11-.33-.44l.22-1.44a.37.37,0,0,1,.39-.33h1.77a3.65,3.65,0,0,0,3.86-2.93l8.45-26.22c.94-3-1.05-3.75-2.71-3.75h-1.77c-.28,0-.44-.22-.33-.55l.33-1.21c.11-.33.22-.44.66-.44s1.66.05,3.2.05,3.42.11,4.75.11h4c4,0,7,0,9.22-.06s3.53-.11,4.14-.11c.89,0,1,.22,1.22,1.1l1.65,7.4c.11.39.11.39-.22.61l-.66.33c-.22.11-.33,0-.66-.33L201,53.88a1.35,1.35,0,0,0-1-.44h-8.61l-4.64,14.3h4.75c2.37,0,4.53-.28,6.51-4.59.11-.22.22-.33.44-.33l1,.33c.22,0,.33.22.22.33a68,68,0,0,0-2.87,11c-.11.33-.22.33-.44.33h-1c-.33-.11-.33-.22-.33-.55,0-4-2.1-4.59-6.07-4.59h-2.76l-5.41,16.73h12.37a7.21,7.21,0,0,0,4.86-2.1c1.21-1,4.2-4.75,5.08-5.74.11-.22.33-.33.66-.11Z"/><path class="cls-1" d="M217.26,82.42c-.94,3-.33,4,1.22,4h2.32c.33,0,.44.22.33.44L221,88.16a.61.61,0,0,1-.66.44c-.66,0-3.09-.17-7.84-.17-3.86,0-6,.17-6.62.17-.33,0-.44-.22-.33-.55l.22-1.21c0-.33.11-.44.55-.44h1.43c1.32,0,2.32-1.21,2.76-2.59l8.83-27.55c.55-1.76.22-2.76-1.66-2.76h-1.88c-.44,0-.55-.11-.44-.44l.22-1.16c.11-.33.22-.44.77-.44,5.74,0,11.48-.16,13-.16,4.75,0,13,.39,13,8,0,5.41-5.85,9.83-13,10.6v.22c1.77.44,2.65,2.1,3.21,3.2.33.55,4.08,8.39,5,9.88,1.49,2.32,2.82,3.2,4.8,3.2h1.44c.33,0,.44.22.33.55l-.11,1.1c-.11.33-.22.55-.55.55-.55,0-1.43-.17-4.42-.17-3.21,0-4.2.17-5.08.17-.55,0-.77-.55-1.54-1.82s-5.63-12.14-6.29-13.47c-1.32-3-3.75-2.71-5.24-2.71Zm4.31-13.75a20.31,20.31,0,0,0,8.83-1.32,9,9,0,0,0,5.4-8.28c0-2.32-1.65-5.91-7.06-5.91a14.18,14.18,0,0,0-2.32.11Z"/><path class="cls-1" d="M271.41,62.21c-.11.22-.22.33-.44.33h-1c-.44,0-.55-.22-.55-.55.33-2.21-.33-8.83-6-8.83-3.2,0-5,3-5,5.35,0,3.86,2.43,5.63,5,8.17s6.18,5.63,6.18,11.76c0,7.06-5.08,10.82-10.82,10.82-3.54,0-6.07-2.1-7.84-4.09a1,1,0,0,0-1.43-.11,24.2,24.2,0,0,0-1.33,2.1c-.11.22-.22.33-.55.22l-.66-.33c-.33-.11-.33-.11-.22-.55l4.08-12c.11-.22.22-.22.55-.22l.89.22a.51.51,0,0,1,.33.55c-1.55,8,2.76,11.7,6.18,11.7a5.83,5.83,0,0,0,6-5.79c0-3.54-2.76-5.63-5.19-8.28-3.42-3.75-6.29-6.62-6.29-12.31a9.88,9.88,0,0,1,10.27-9.72,11.71,11.71,0,0,1,6.52,2.54,1.61,1.61,0,0,0,.77.22c.33,0,.66-.77.88-1.88,0-.22.11-.22.55-.22l.66.11c.33,0,.44.11.44.33Z"/><path class="cls-1" d="M284.88,57.13c.77-2.76-.11-3.64-1.55-3.64h-2.54c-.44,0-.55-.11-.55-.44l.33-1.44c0-.22.22-.33.66-.33.67,0,3.65.16,8.06.16,4.75,0,7.07-.16,7.84-.16.55,0,.77.22.66.66l-.33,1.1c0,.22-.11.44-.55.44h-1.44c-2.32,0-3.59.55-4.42,3.7l-6.84,25.45c-.72,2.65.11,3.75,2.43,3.75h2c.33,0,.44.22.33.55l-.11,1.1c-.11.44-.11.55-.66.55s-3.2-.17-8.83-.17c-4.64,0-7.51.17-8.17.17-.33,0-.44-.22-.44-.55l.33-1.21c0-.33.11-.44.44-.44h2.1c3.2,0,3.53-1.1,4.31-3.92Z"/><path class="cls-1" d="M325.95,51.45c5,0,7-.44,7.95-1,.22-.11.33-.22.55-.22a.41.41,0,0,1,.45.44c-.11.88-.66,8.94-.55,11.15,0,.33-.11.44-.44.5l-.88.16c-.33,0-.55-.22-.77-.88A38.83,38.83,0,0,0,330,55c-1.22-.94-5.19-1.43-7.73-1.43h-1.1L312.47,81.7c-1.1,3.48-.55,4.69,2.32,4.69H317c.28,0,.39.22.33.55l-.22,1.1a.58.58,0,0,1-.66.55c-.77,0-3-.16-8.17-.16-5.41,0-8.34.16-8.89.16-.39,0-.55-.22-.5-.55l.11-1.21c.05-.33.22-.44.66-.44h1.43c3.09,0,4.14-1.43,5.41-5.58L315,53.55h-1.43c-5.08,0-7.51.28-8.78,1.21a49.26,49.26,0,0,0-6.13,6.18.81.81,0,0,1-.66.22l-.88-.55c-.22-.11-.22-.33-.11-.55.66-1.21,4.09-8.94,4.2-9.27s.22-.55.55-.55.44.11.88.44c1.1.33,3.75.77,9.5.77Z"/><path class="cls-1" d="M351.22,83.3c-.61,2.87.11,3.09,2,3.09h1.21a.4.4,0,0,1,.44.44L354.64,88c0,.33-.11.56-.55.56-.88,0-2.65-.17-7.06-.17-5,0-6.63.17-7.29.17-.33,0-.44-.11-.44-.56l.22-1.21c0-.22.11-.44.56-.44h1.21c2.54,0,3.31-1.21,3.64-2.81l1.77-8.17a6.26,6.26,0,0,0-.11-2.87l-5.74-16.95c-.44-1.32-1.55-2.1-3.43-2.1h-1.21c-.34,0-.44-.11-.44-.44l.22-1.32c.11-.33.22-.44.55-.44.77,0,2.21.16,6.63.16,4.75,0,6.62-.16,7.29-.16.44,0,.55.11.55.44L350.89,53c-.11.33-.22.44-.55.44H348.9c-1.77,0-1.77,1.33-1.43,2.43l4.42,14.85c.22.88.66.88,1.1.11.77-1.21,8.61-12.81,9.16-14.47.72-2.1,0-2.92-1.88-2.92h-1.21c-.34,0-.44-.22-.34-.55l.11-1.21c0-.33.11-.44.66-.44.77,0,2.87.16,6,.16,3.42,0,5.08-.16,5.85-.16.44,0,.55.22.55.55l-.22,1.1c0,.44-.11.55-.44.55h-1c-1.88,0-3,.88-4.08,2.37-.89,1.21-10.93,15.24-11.7,16.56a13.12,13.12,0,0,0-1.88,4.75Z"/></g></g></svg>