<?xml version="1.0" encoding="utf-8"?>
<!-- Generator: Adobe Illustrator 17.1.0, SVG Export Plug-In . SVG Version: 6.00 Build 0)  -->
<!DOCTYPE svg PUBLIC "-//W3C//DTD SVG 1.1//EN" "http://www.w3.org/Graphics/SVG/1.1/DTD/svg11.dtd">
<svg version="1.1" id="Layer_1" xmlns="http://www.w3.org/2000/svg" xmlns:xlink="http://www.w3.org/1999/xlink" x="0px" y="0px"
	 viewBox="0 0 560.6 368" enable-background="new 0 0 560.6 368" xml:space="preserve">
<g>
	<polygon fill="#C4C4C4" points="388.9,353 269,353 274.4,300.6 383.4,300.6 	"/>
	<linearGradient id="SVGID_1_" gradientUnits="userSpaceOnUse" x1="328.9231" y1="291.0483" x2="328.9231" y2="454.1056">
		<stop  offset="0" style="stop-color:#B5B5B5"/>
		<stop  offset="0.1271" style="stop-color:#CACACA"/>
		<stop  offset="0.3111" style="stop-color:#E1E1E1"/>
		<stop  offset="0.508" style="stop-color:#F2F2F2"/>
		<stop  offset="0.7248" style="stop-color:#FCFCFC"/>
		<stop  offset="1" style="stop-color:#FFFFFF"/>
	</linearGradient>
	<polygon fill="url(#SVGID_1_)" points="388.9,353 269,353 274.4,300.6 383.4,300.6 	"/>
	<rect x="240" y="353" fill="#C4C4C4" width="177.9" height="15"/>
	<path fill="#C4C4C4" d="M123.5,250.1v18.6c0,17.6,14.3,31.8,31.8,31.8h347.2c17.6,0,31.8-14.3,31.8-31.8v-18.6H123.5z"/>
	<path fill="#4D4D4D" d="M502.5,0H155.3c-17.6,0-31.8,14.3-31.8,31.8v218.3h410.9V31.8C534.4,14.3,520.1,0,502.5,0z"/>
	<rect x="149.5" y="25.8" fill="#EDEDED" width="358.9" height="200.8"/>
	<path fill="#EDEDED" d="M220.9,102.4"/>
	<rect x="294.9" y="175.7" fill="#C4C4C4" width="69.1" height="32.8"/>
	<rect x="207.4" y="175.7" fill="#C4C4C4" width="69.1" height="32.8"/>
	<rect x="382.4" y="176.1" fill="#C4C4C4" width="69.1" height="32.8"/>
	<rect x="294.9" y="208.5" fill="#FFFFFF" width="69.1" height="18.1"/>
	<rect x="207.4" y="208.5" fill="#FFFFFF" width="69.1" height="18.1"/>
	<rect x="382.4" y="208.5" fill="#FFFFFF" width="69.1" height="18.1"/>
	<g>
		<circle fill="#C4C4C4" cx="160.3" cy="36.6" r="3.3"/>
		<circle fill="#C4C4C4" cx="171.1" cy="36.6" r="3.3"/>
		<circle fill="#C4C4C4" cx="182" cy="36.6" r="3.3"/>
	</g>
	<g>
		<rect x="232.6" y="156.8" fill="#FFFFFF" width="193.8" height="7.9"/>
	</g>
	<g>
		<rect x="149.2" y="46.5" fill="#F69321" width="359.2" height="99.4"/>
		<path fill="#F15825" d="M318.9,46.5H149.2v99.4h359.2v-9C447.8,103.1,384.6,72.9,318.9,46.5z"/>
		<path fill="#F15825" d="M508.4,145.9V83.1C447.8,98.8,390,120,335.5,145.9H508.4z"/>
	</g>
	<linearGradient id="SVGID_2_" gradientUnits="userSpaceOnUse" x1="123.4612" y1="125.0495" x2="471.5249" y2="125.0495">
		<stop  offset="0" style="stop-color:#FFFFFF;stop-opacity:0"/>
		<stop  offset="0.582" style="stop-color:#FFFFFF"/>
	</linearGradient>
	<path opacity="0.1" fill="url(#SVGID_2_)" d="M123.5,31.8v218.3h122.7L471.5,0H155.3C137.7,0,123.5,14.3,123.5,31.8z"/>
</g>
<path fill="#4D4D4D" d="M560.5,213.3c0-3.6-2.9-6.6-6.6-6.6l-73.9,0.1c-3.6,0-6.6,2.9-6.6,6.6l0,36.6c0,0.1,0,110.7,0,110.7
	c0,3.6,2.9,6.6,6.6,6.6l73.9-0.1c3.6,0,6.6-2.9,6.6-6.6L560.5,213.3z"/>
<rect x="473.5" y="224.5" fill="#EDEDED" width="87.1" height="123.3"/>
<rect x="486.8" y="316.6" fill="#C4C4C4" width="60.5" height="21.5"/>
<rect x="486.8" y="338" fill="#FFFFFF" width="60.5" height="9.9"/>
<g>
	<rect x="486.8" y="292" fill="#FFFFFF" width="60.5" height="5.2"/>
</g>
<g>
	<rect x="493" y="301.9" fill="#FFFFFF" width="48.1" height="5.2"/>
</g>
<path opacity="0.1" fill="#FFFFFF" d="M521.8,217.5h-9.5c-0.7,0-1.2-0.6-1.2-1.2c0-0.7,0.6-1.2,1.2-1.2h9.5c0.7,0,1.2,0.6,1.2,1.2
	C523,216.9,522.5,217.5,521.8,217.5z"/>
<circle opacity="0.1" fill="none" stroke="#FFFFFF" stroke-miterlimit="10" cx="517" cy="357" r="5"/>
<g>
	<path fill="#4D4D4D" d="M178.5,122c0-4.4-3.6-8-8-8L8,114.1c-4.4,0-8,3.6-8,8l0,102.7c0,0.1,0.1,134.7,0.1,134.7c0,4.4,3.6,8,8,8
		l162.6-0.1c4.4,0,8-3.6,8-8L178.5,122z"/>
	<rect x="8.5" y="135.7" fill="#EDEDED" width="161.7" height="208.2"/>
	<g>
		<defs>
			<rect id="SVGID_3_" x="8.5" y="135.7" width="161.7" height="76.9"/>
		</defs>
		<clipPath id="SVGID_4_">
			<use xlink:href="#SVGID_3_"  overflow="visible"/>
		</clipPath>
		<g clip-path="url(#SVGID_4_)">
			<rect x="-189.1" y="135.7" fill="#F69321" width="359.2" height="99.4"/>
			<path fill="#F15825" d="M-19.3,135.7h-169.8v99.4h359.2v-9C109.6,192.4,46.4,162.1-19.3,135.7z"/>
			<path fill="#F15825" d="M170.1,235.1v-62.8c-60.6,15.7-118.3,36.8-172.9,62.8H170.1z"/>
		</g>
	</g>
	<rect x="20.8" y="254.6" fill="#C4C4C4" width="63.6" height="26.1"/>
	<rect x="20.8" y="280.7" fill="#FFFFFF" width="63.6" height="28.4"/>
	<rect x="94.2" y="254.6" fill="#C4C4C4" width="63.6" height="26.1"/>
	<rect x="94.2" y="280.7" fill="#FFFFFF" width="63.6" height="28.4"/>
	<rect x="20.8" y="317.8" fill="#C4C4C4" width="63.6" height="26.1"/>
	<rect x="94.1" y="317.8" fill="#C4C4C4" width="63.6" height="26.1"/>
	<g>
		<rect x="20.8" y="224.8" fill="#FFFFFF" width="137" height="6.3"/>
	</g>
	<g>
		<rect x="28" y="236.8" fill="#FFFFFF" width="122.7" height="6.3"/>
	</g>
	<path opacity="0.1" fill="#FFFFFF" d="M90.4,128.1h0.1c-1.4,0-2.5-1.1-2.5-2.5c0-1.4,1.1-2.5,2.5-2.5h-0.1c1.4,0,2.5,1.1,2.5,2.5
		C92.9,127,91.8,128.1,90.4,128.1z"/>
	<circle opacity="0.1" fill="none" stroke="#FFFFFF" stroke-miterlimit="10" cx="90.5" cy="355" r="6.1"/>
	<linearGradient id="SVGID_5_" gradientUnits="userSpaceOnUse" x1="1.213518e-006" y1="222.1165" x2="178.5535" y2="222.1165">
		<stop  offset="0" style="stop-color:#FFFFFF;stop-opacity:0"/>
		<stop  offset="0.582" style="stop-color:#FFFFFF"/>
	</linearGradient>
	<path opacity="0.1" fill="url(#SVGID_5_)" d="M178.5,122c0-4.4-3.6-8-8-8L8,114.1c-4.4,0-8,3.6-8,8l0,102.7c0,0.1,0,65.8,0,105.4
		l178.5-175.6L178.5,122z"/>
</g>
<g>
	<defs>
		<rect id="SVGID_6_" x="473.5" y="224.5" width="87.1" height="58"/>
	</defs>
	<clipPath id="SVGID_7_">
		<use xlink:href="#SVGID_6_"  overflow="visible"/>
	</clipPath>
	<g clip-path="url(#SVGID_7_)">
		<rect x="366.1" y="224.5" fill="#F69321" width="213.6" height="59.1"/>
		<path fill="#F15825" d="M467.1,224.5H366.1v59.1h213.6v-5.3C543.7,258.2,506.1,240.2,467.1,224.5z"/>
		<path fill="#F15825" d="M579.7,283.6v-37.3c-36,9.3-70.3,21.9-102.8,37.3H579.7z"/>
	</g>
</g>
<linearGradient id="SVGID_8_" gradientUnits="userSpaceOnUse" x1="473.5174" y1="271.6552" x2="560.5771" y2="271.6552">
	<stop  offset="0" style="stop-color:#FFFFFF;stop-opacity:0"/>
	<stop  offset="0.582" style="stop-color:#FFFFFF"/>
</linearGradient>
<path opacity="0.1" fill="url(#SVGID_8_)" d="M560.6,213.3c0-3.6-2.9-6.6-6.6-6.6l-73.9,0.1c-3.6,0-6.6,2.9-6.6,6.6l0,36.6
	c0,0.1,0,54.1,0,86.6l87-96.5L560.6,213.3z"/>
</svg>
