<?xml version="1.0" encoding="utf-8"?>
<!-- Generator: Adobe Illustrator 17.1.0, SVG Export Plug-In . SVG Version: 6.00 Build 0)  -->
<!DOCTYPE svg PUBLIC "-//W3C//DTD SVG 1.1//EN" "http://www.w3.org/Graphics/SVG/1.1/DTD/svg11.dtd">
<svg version="1.1" id="Layer_2" xmlns="http://www.w3.org/2000/svg" xmlns:xlink="http://www.w3.org/1999/xlink" x="0px" y="0px"
	 viewBox="0 0 56.5 48.1" enable-background="new 0 0 56.5 48.1" xml:space="preserve">
<g>
	<path fill="#ED5725" d="M32.7,13.6l-5.1-3.3c-1.9-1.2-4.2-1.3-6.2-0.4c0.5-0.9,1.3-1.4,2.2-1.6c-1.5-0.5-3.1,0.1-3.8,1.6l-1.3,2.8
		l0,0c-0.6,1.2-0.8,2.5-0.6,3.7c0,0,0,0,0,0l-2-0.9c-3.4-1.6-7.1-1.8-10.5-0.7L7.8,20c1,2.3,3.2,3.6,5.5,3.5l0.1,0.2
		c0.7,1.7,2.5,2.5,4.2,2c0,0,0,0,0,0c-1.5,0.7-3.3,0.2-4.3-1c-1.1,1-2.3,1.8-3.8,2.3C6.4,28.4,3,28.3,0,27.2l7.9,4.6
		c6.7,3.8,15.2,1.5,19-5.1c1.4-2.4,2-5.1,1.8-7.6c0.1-0.2,0.3-0.3,0.4-0.5L32.7,13.6z"/>
	<g>
		<linearGradient id="SVGID_1_" gradientUnits="userSpaceOnUse" x1="7.9471" y1="38.7558" x2="7.9471" y2="10.2328">
			<stop  offset="0" style="stop-color:#FFFFFF;stop-opacity:0"/>
			<stop  offset="0.582" style="stop-color:#FFFFFF"/>
		</linearGradient>
		<path opacity="0.1" fill="url(#SVGID_1_)" d="M13.4,24.7c-1.1,1-2.3,1.8-3.8,2.3C6.4,28.4,3,28.3,0,27.2l7.9,4.6
			c0.3,0.2,0.7,0.4,1,0.5l6.9-6.3C14.9,26,14,25.5,13.4,24.7z"/>
		<linearGradient id="SVGID_2_" gradientUnits="userSpaceOnUse" x1="18.2527" y1="38.7558" x2="18.2527" y2="10.2328">
			<stop  offset="0" style="stop-color:#FFFFFF;stop-opacity:0"/>
			<stop  offset="0.582" style="stop-color:#FFFFFF"/>
		</linearGradient>
		<path opacity="0.1" fill="url(#SVGID_2_)" d="M27.6,10.3c-1.9-1.2-4.2-1.3-6.2-0.4c0.5-0.9,1.3-1.4,2.2-1.6
			c-1.5-0.5-3.1,0.1-3.8,1.6l-1.3,2.8l0,0c-0.6,1.2-0.8,2.5-0.6,3.7c0,0,0,0,0,0l-2-0.9c-3.4-1.6-7.1-1.8-10.5-0.7L7.8,20
			c1,2.3,3.2,3.6,5.5,3.5l0.1,0.2c0.5,1.2,1.5,1.9,2.7,2.1l14.8-13.3L27.6,10.3z"/>
	</g>
	<polygon fill="#F59120" points="30.6,16.4 32.7,13.6 29.7,11.7 	"/>
</g>
<g>
	<path fill="#ED5725" d="M44.1,35.5L38.3,25c0,0-0.9-1.5-2.3-0.9c-1.2,0.5-1.1,1.6-0.9,2.7c0.2,0.8,1.1,5.7,1.1,5.7l-7,0.2
		c0,0-2.4-0.2-2.3,1.6c0.1,1.9,0.8,7.5,1.2,9.3c0.4,1.8,1.5,3.3,3.4,3.5s9.5,0,9.9,0C41.8,47.1,44.4,36.1,44.1,35.5z"/>
	<path fill="#B11F24" d="M51.5,34.4h-6.8c-0.4,0-0.8,0.3-0.9,0.7L41.1,47c-0.1,0.6,0.3,1.1,0.9,1.1l9.5-0.2c0.5,0,0.9-0.4,0.9-0.9
		V35.3C52.4,34.8,52,34.4,51.5,34.4z"/>
	
		<linearGradient id="SVGID_3_" gradientUnits="userSpaceOnUse" x1="70.0785" y1="67.1844" x2="70.0785" y2="9.7135" gradientTransform="matrix(-1 0 0 1 113.7716 0)">
		<stop  offset="0" style="stop-color:#FFFFFF;stop-opacity:0"/>
		<stop  offset="0.582" style="stop-color:#FFFFFF"/>
	</linearGradient>
	<path opacity="0.1" fill="url(#SVGID_3_)" d="M36.3,32.5c0,0-1-4.9-1.1-5.7c-0.2-1.2-0.3-2.2,0.9-2.7c1.4-0.6,2.3,0.9,2.3,0.9
		l5.5,10.1l0,0c0.1-0.4,0.5-0.7,0.9-0.7h6.8c0.5,0,0.9,0.4,0.9,0.9V47c0,0.5-0.4,0.9-0.9,0.9l-1.4,0L36.3,32.5L36.3,32.5z"/>
</g>
<path fill="#F59120" d="M45.9,0c5.9,0,10.6,4.7,10.6,10.6c0,2.3-0.7,4.4-2,6.2l-8.6,9.7v-5.3c0,0,0,0,0,0c-5.9,0-10.6-4.7-10.6-10.6
	S40,0,45.9,0z"/>
<g>
	<circle fill="#FFFFFF" cx="40.8" cy="10.6" r="1"/>
	<circle fill="#FFFFFF" cx="51" cy="10.6" r="1"/>
	<circle fill="#FFFFFF" cx="45.9" cy="10.6" r="1"/>
</g>
<linearGradient id="SVGID_4_" gradientUnits="userSpaceOnUse" x1="44.5861" y1="30.8388" x2="44.5861" y2="2.1148">
	<stop  offset="0" style="stop-color:#FFFFFF;stop-opacity:0"/>
	<stop  offset="0.582" style="stop-color:#FFFFFF"/>
</linearGradient>
<path opacity="0.1" fill="url(#SVGID_4_)" d="M45.9,0C40,0,35.3,4.7,35.3,10.6c0,2.8,1.1,5.3,2.8,7.2L53.9,3.6
	C51.9,1.4,49.1,0,45.9,0z"/>
</svg>
