<?xml version="1.0" encoding="utf-8"?>
<!-- Generator: Adobe Illustrator 17.1.0, SVG Export Plug-In . SVG Version: 6.00 Build 0)  -->
<!DOCTYPE svg PUBLIC "-//W3C//DTD SVG 1.1//EN" "http://www.w3.org/Graphics/SVG/1.1/DTD/svg11.dtd">
<svg version="1.1" id="Layer_1" xmlns="http://www.w3.org/2000/svg" xmlns:xlink="http://www.w3.org/1999/xlink" x="0px" y="0px"
	 viewBox="0 0 402.5 351.8" enable-background="new 0 0 402.5 351.8" xml:space="preserve">
<path fill="#F69321" d="M312.8,19L312.8,19c0-10.5-8.5-19-18.9-19l-95.7,0c-10.4,0-18.9,8.5-18.9,18.9l0,83.6
	c0,10.4,8.5,18.9,18.9,18.9h22.3l25.6,25.6l25.6-25.6H294c10.4,0,18.9-8.5,18.9-18.9L312.8,19L312.8,19z"/>
<linearGradient id="SVGID_1_" gradientUnits="userSpaceOnUse" x1="105.1971" y1="73.5456" x2="313.2813" y2="73.5456">
	<stop  offset="0" style="stop-color:#FFFFFF;stop-opacity:0"/>
	<stop  offset="0.4954" style="stop-color:#FFFFFF"/>
</linearGradient>
<path opacity="0.1" fill="url(#SVGID_1_)" d="M179.3,102.6c0,10.4,8.5,18.9,18.9,18.9h22.3l25.6,25.6l25.6-25.6H294
	c10.4,0,18.9-8.5,18.9-18.9V19h0v-0.1c0-10.4-8.5-18.9-18.9-18.9l-28.6,0l-86,86.1L179.3,102.6z"/>
<path fill="#EE5825" d="M133.5,19L133.5,19c0-10.5-8.5-19-18.9-19L18.9,0C8.5,0,0,8.5,0,19l0,83.6c0,10.4,8.5,18.9,18.9,18.9h22.3
	l25.6,25.6l25.6-25.6h22.3c10.4,0,18.9-8.5,18.9-18.9L133.5,19L133.5,19z"/>
<linearGradient id="SVGID_2_" gradientUnits="userSpaceOnUse" x1="-74.1011" y1="73.5456" x2="133.9831" y2="73.5456">
	<stop  offset="0" style="stop-color:#FFFFFF;stop-opacity:0"/>
	<stop  offset="0.4954" style="stop-color:#FFFFFF"/>
</linearGradient>
<path opacity="0.1" fill="url(#SVGID_2_)" d="M0,102.6c0,10.4,8.5,18.9,18.9,18.9h22.3l25.6,25.6l25.6-25.6h22.3
	c10.4,0,18.9-8.5,18.9-18.9V19h0v-0.1c0-10.4-8.5-18.9-18.9-18.9L86,0L0,86.1L0,102.6z"/>
<path fill="#F69321" d="M89.7,332.9L89.7,332.9c0,10.5,8.5,19,18.9,19l95.7,0c10.4,0,18.9-8.5,18.9-18.9l0-83.6
	c0-10.4-8.5-18.9-18.9-18.9H182l-25.6-25.6l-25.6,25.6h-22.3c-10.4,0-18.9,8.5-18.9,18.9L89.7,332.9L89.7,332.9z"/>
<path fill="#EE5825" d="M269,332.9L269,332.9c0,10.5,8.5,19,18.9,19l95.7,0c10.4,0,18.9-8.5,18.9-18.9l0-83.6
	c0-10.4-8.5-18.9-18.9-18.9h-22.3l-25.6-25.6l-25.6,25.6h-22.3c-10.4,0-18.9,8.5-18.9,18.9L269,332.9L269,332.9z"/>
<linearGradient id="SVGID_3_" gradientUnits="userSpaceOnUse" x1="194.8462" y1="-237.413" x2="402.9304" y2="-237.413" gradientTransform="matrix(1 0 0 -1 0 40.8907)">
	<stop  offset="0" style="stop-color:#FFFFFF;stop-opacity:0"/>
	<stop  offset="0.4954" style="stop-color:#FFFFFF"/>
</linearGradient>
<path opacity="0.1" fill="url(#SVGID_3_)" d="M269,249.2c0-10.4,8.5-18.9,18.9-18.9h22.3l25.6-25.6l25.6,25.6h22.3
	c10.4,0,18.9,8.5,18.9,18.9v83.6h0v0.1c0,10.4-8.5,18.9-18.9,18.9l-28.6,0l-86-86.1L269,249.2z"/>
<linearGradient id="SVGID_4_" gradientUnits="userSpaceOnUse" x1="15.5283" y1="-237.413" x2="223.6125" y2="-237.413" gradientTransform="matrix(1 0 0 -1 0 40.8907)">
	<stop  offset="0" style="stop-color:#FFFFFF;stop-opacity:0"/>
	<stop  offset="0.4954" style="stop-color:#FFFFFF"/>
</linearGradient>
<path opacity="0.1" fill="url(#SVGID_4_)" d="M89.7,249.2c0-10.4,8.5-18.9,18.9-18.9h22.3l25.6-25.6l25.6,25.6h22.3
	c10.4,0,18.9,8.5,18.9,18.9v83.6h0v0.1c0,10.4-8.5,18.9-18.9,18.9l-28.6,0l-86-86.1L89.7,249.2z"/>
<circle fill="#4D4C4D" cx="66.8" cy="176.9" r="16"/>
<circle fill="#4D4C4D" cx="246.1" cy="176.9" r="16"/>
<circle fill="#4D4C4D" cx="156.4" cy="176.9" r="16"/>
<circle fill="#4D4C4D" cx="335.7" cy="176.9" r="16"/>
<g>
	<path fill="#C4C4C4" d="M133.8,185c-0.9-2.5-1.4-5.3-1.4-8.1c0-2.8,0.5-5.6,1.4-8.1H89.4c0.9,2.5,1.4,5.3,1.4,8.1
		c0,2.8-0.5,5.6-1.4,8.1H133.8z"/>
	<path fill="#C4C4C4" d="M313.1,185c-0.9-2.5-1.4-5.3-1.4-8.1c0-2.8,0.5-5.6,1.4-8.1h-44.4c0.9,2.5,1.4,5.3,1.4,8.1
		c0,2.8-0.5,5.6-1.4,8.1H313.1z"/>
	<path fill="#C4C4C4" d="M223.4,185c-0.9-2.5-1.4-5.3-1.4-8.1c0-2.8,0.5-5.6,1.4-8.1h-44.4c0.9,2.5,1.4,5.3,1.4,8.1
		c0,2.8-0.5,5.6-1.4,8.1H223.4z"/>
</g>
<g>
	<path fill="#FFFFFF" d="M262,49.3c0,8.3-7.1,21.1-15.9,21.1s-15.9-12.8-15.9-21.1s7.1-17.8,15.9-17.8S262,41.1,262,49.3z"/>
	<path fill="#FFFFFF" d="M275.9,87.2c0-6-13.4-10.8-29.8-10.8s-29.8,4.8-29.8,10.8H275.9z"/>
</g>
<g>
	<g>
		<polyline fill="none" stroke="#FFFFFF" stroke-miterlimit="10" points="138,273.9 138,311.8 151.1,311.8 		"/>
		<line fill="none" stroke="#FFFFFF" stroke-miterlimit="10" x1="151.7" y1="291.9" x2="138" y2="291.9"/>
		<rect x="130.2" y="266.1" fill="#FFFFFF" width="52.6" height="12.1"/>
		<rect x="146.5" y="305.7" fill="#FFFFFF" width="36.2" height="12.1"/>
		<rect x="146.5" y="285.9" fill="#FFFFFF" width="36.2" height="12.1"/>
	</g>
</g>
<g>
	<path fill="#FFFFFF" d="M65.7,39.4c-13.6,0-24.5,11-24.5,24.5s11,24.5,24.5,24.5c13.6,0,24.5-11,24.5-24.5H65.7V39.4z"/>
	<path fill="#FFFFFF" d="M70.6,34.4V59h24.5C95.2,45.4,84.2,34.4,70.6,34.4z"/>
</g>
<path fill="#FFFFFF" d="M358.7,284.6c-0.1-0.3-0.2-0.6-0.3-0.9c-0.2-0.5-0.3-0.9-0.5-1.4c-0.1-0.2-0.2-0.5-0.3-0.7
	c-0.2-0.5-0.5-1-0.7-1.4c0-0.1-0.1-0.1-0.1-0.2c-0.1-0.2-0.2-0.4-0.3-0.5c-0.3-0.4-0.5-0.8-0.8-1.2c-0.2-0.3-0.4-0.6-0.7-0.9
	c-0.2-0.3-0.5-0.6-0.7-0.9c-0.3-0.3-0.5-0.6-0.8-0.9l1.9-8.1c-1.1-0.9-2.4-1.8-3.7-2.5c-1.3-0.8-2.7-1.4-4-1.9l-6.1,5.6
	c-0.4-0.1-0.8-0.2-1.2-0.3c-0.3-0.1-0.7-0.1-1.1-0.2c-0.4-0.1-0.8-0.1-1.2-0.1c-0.4,0-0.9-0.1-1.3-0.1c-0.3,0-0.5,0-0.7,0
	c-0.1,0-0.2,0-0.3,0c-0.5,0-1,0-1.4,0.1c-0.3,0-0.7,0-1,0.1c-0.4,0-0.9,0.1-1.3,0.2c-0.4,0.1-0.7,0.1-1.1,0.2
	c-0.2,0-0.3,0.1-0.5,0.1l-6-5.6c-1.4,0.5-2.7,1.2-4,1.9c-1.3,0.8-2.5,1.6-3.7,2.5l1.8,8.1c-0.3,0.3-0.5,0.5-0.7,0.8
	c-0.2,0.3-0.4,0.5-0.6,0.8c-0.3,0.3-0.5,0.7-0.8,1c-0.2,0.3-0.4,0.6-0.6,0.9c-0.2,0.3-0.4,0.7-0.6,1c-0.2,0.4-0.4,0.7-0.6,1.1
	c-0.2,0.3-0.3,0.6-0.5,0.9c-0.2,0.4-0.4,0.8-0.5,1.2c-0.1,0.3-0.2,0.6-0.3,0.9c-0.1,0.3-0.2,0.7-0.4,1.1l-7.9,2.4
	c-0.2,1.4-0.4,2.9-0.4,4.4c0,1.5,0.1,3,0.3,4.4l7.9,2.5c0.1,0.2,0.1,0.3,0.2,0.5c0.1,0.3,0.2,0.7,0.4,1c0.2,0.4,0.3,0.9,0.5,1.3
	c0.1,0.3,0.3,0.6,0.4,0.8c0.2,0.4,0.4,0.9,0.7,1.3c0,0.1,0.1,0.2,0.1,0.2c0.1,0.2,0.3,0.4,0.4,0.6c0.2,0.4,0.5,0.8,0.7,1.2
	c0.2,0.3,0.5,0.6,0.7,1c0.2,0.3,0.4,0.6,0.7,0.9c0.3,0.3,0.6,0.6,0.8,0.9l-1.9,8.1c1.1,0.9,2.4,1.8,3.7,2.5c1.3,0.8,2.7,1.4,4,1.9
	l6.1-5.6c0.4,0.1,0.8,0.2,1.2,0.3c0.4,0.1,0.8,0.1,1.2,0.2c0.3,0,0.7,0.1,1,0.1c0.5,0,1,0.1,1.5,0.1c0.2,0,0.4,0,0.6,0
	c0.1,0,0.2,0,0.2,0c0.6,0,1.1,0,1.7-0.1c0.2,0,0.5,0,0.7-0.1c0.5-0.1,1-0.1,1.6-0.2c0.3,0,0.6-0.1,0.8-0.1c0.2,0,0.4-0.1,0.6-0.1
	l6,5.6c1.4-0.5,2.7-1.2,4-1.9c1.3-0.8,2.5-1.6,3.7-2.5l-1.8-8.1c0.3-0.3,0.5-0.6,0.8-0.8c0.2-0.2,0.4-0.5,0.6-0.7
	c0.3-0.4,0.6-0.7,0.8-1.1c0.2-0.3,0.4-0.6,0.6-0.8c0.2-0.3,0.4-0.7,0.6-1c0.2-0.3,0.4-0.7,0.6-1c0.2-0.3,0.3-0.6,0.5-1
	c0.2-0.4,0.4-0.8,0.5-1.2c0.1-0.3,0.2-0.6,0.3-0.9c0.1-0.3,0.2-0.7,0.4-1.1l7.9-2.4c0.2-1.4,0.3-2.9,0.4-4.4c0-1.5-0.1-3-0.3-4.4
	l-7.9-2.5C358.8,285,358.8,284.8,358.7,284.6z M341.8,302.5c-5.8,3.3-13.2,1.3-16.6-4.5c-3.3-5.8-1.3-13.2,4.5-16.6
	c5.8-3.3,13.2-1.3,16.6,4.5C349.6,291.7,347.6,299.1,341.8,302.5z"/>
<path fill="#C4C4C4" d="M367.8,185v-16.2h-9.4c0.9,2.5,1.4,5.3,1.4,8.1c0,2.8-0.5,5.6-1.4,8.1H367.8z"/>
<rect x="376.5" y="168.7" fill="#C4C4C4" width="8.7" height="16.2"/>
<rect x="393.8" y="168.7" fill="#C4C4C4" width="8.7" height="16.2"/>
</svg>
